<?xml version="1.0" encoding="utf-8"?>
<!-- Generator: Adobe Illustrator 23.0.2, SVG Export Plug-In . SVG Version: 6.00 Build 0)  -->
<svg version="1.1" id="Layer_1" xmlns="http://www.w3.org/2000/svg" xmlns:xlink="http://www.w3.org/1999/xlink" x="0px" y="0px"
	 viewBox="0 0 1440 1440" style="enable-background:new 0 0 1440 1440;" xml:space="preserve">
<style type="text/css">
	.st0{fill:#FAF0E5;}
	.st1{fill:#D81E5A;}
	.st2{fill:#6621BF;}
	.st3{fill:#B30F51;}
	.st4{fill:#E3BAF9;}
	.st5{fill:#54DBFC;}
	.st6{fill:#CCE947;}
	.st7{fill:#39C8FC;}
	.st8{fill:#2CBBFC;}
	.st9{fill:#0661E1;}
	.st10{fill:#E03908;}
	.st11{fill:#934FE4;}
	.st12{fill:#84E7F9;}
	.st13{fill:#FAD797;}
	.st14{fill:#FC8E67;}
	.st15{fill:#38BB40;}
	.st16{fill:#F7933A;}
	.st17{fill:#229CF6;}
	.st18{fill:#178AF3;}
	.st19{fill:#F2325C;}
	.st20{fill:#F07749;}
	.st21{fill:#F4661B;}
	.st22{fill:#75D23F;}
	.st23{fill:#460AA5;}
	.st24{fill:#B97CEF;}
	.st25{fill:#FBA85B;}
	.st26{fill:#FB5C63;}
	.st27{fill:#FCBE78;}
	.st28{fill:#F77A24;}
	.st29{fill:#FEFEFE;}
</style>
<path class="st0" d="M1252.5,642.8c-7.9-0.3-16-2.1-23.7-0.8c-51.5,8.9-103.3,1.7-154.9,3.9c-3.7,0.2-7.4-1.3-11.1-2.1
	c10.4-2.1,20.8-4.2,34.7-6.9c-9.7-3.8-16.5-6.4-23.5-9.2c2.2-3.4,3.8-5.7,5.2-7.9c-7.1-2.4-13.7-3.5-19.1-6.6
	c-19-10.9-36.6-24.7-58.4-30.3c-1.3-0.3-2.3-1.7-3.4-2.5c-14.6-9.8-29.3-19.6-44-29.4c-1.2-0.8-2.7-1-3.9-1.7
	c-8-4.4-16-8.8-24.1-13.2c-3.4,7-6.5,3.7-9.3-1.7c-1.4-2.7-2.4-7.6-4.2-7.8c-8.7-1.3-6.4-7.6-7.2-13c-0.7-4.8-2.6-9.3-4-14
	c-0.3-9.9-0.6-19.8-0.9-29.7c0-8.1,0-16.2,0-24.3c0.3-2.8,0.7-5.6,1-8.4c5,1.6,10,3.2,14.5,4.7c0.9,11.6,1.8,23.6,2.6,33.8
	c9.1,1.9,16.1,5.2,22.4,4.2c17.4-2.5,29.4,7.9,41.5,16.5c11.4,8.2,20.6,18.9,34.7,23.9c8.1,2.9,13.7,12.4,21.8,15.9
	c28.1,12,56.8,22.8,85.3,33.9c3.9,1.5,8.3,2.6,12.4,2.6c7.8,0,14.1,1.4,20.2,7.5c3,3.1,10.4,1.8,15.9,2.5c0-4.4,1.4-9.3-0.3-13
	c-2.1-4.8-6.2-8.9-10.2-12.6c-4-3.7-8.9-6.6-13.6-10c3.8-4.1,6.9-7.4,10.8-11.7c-3.8-2.2-6.7-3.9-9.6-5.7c-3.6-2.2-7.6-4-10.7-6.7
	c-8.6-7.4-16.3-15.9-25.5-22.5c-7.5-5.4-16.8-8-24.7-13c-11.6-7.3-22-16.5-33.8-23.3c-7.7-4.4-18.1-9.8-25.5-7.9
	c-9.2,2.4-11.8-1.8-16.8-6.1c-3.4-2.9-8.6-6.4-12.3-5.7c-6,1.1-9.1-1.1-14.1-3.5c-10.3-4.9-22-6.8-33-10.3
	c-5.3-1.7-10.5-4.1-15.7-6.2c13.7,1.9,27.3,3.8,41,5.8c22.7,8.4,45.6,16.2,68,25.4c14.4,5.9,28,13.6,41.9,20.4
	c7.2,4.5,14.3,9.1,21.5,13.6c0.3,0.5,0.8,0.9,1.3,1.1c1.4,0.9,2.8,1.8,4.3,2.8l0.5,0.3c12.9,9.9,25.7,19.7,38.6,29.6l0.2,0.2
	c1,0.9,2,1.8,3,2.6c0.2,0.4,0.5,0.7,1,0.9c0.5,0.4,1,0.7,1.6,1.1c0,0,0.5,0.4,0.5,0.4c18.7,20.6,37.4,41.1,56.2,61.7
	c9.1,13.2,18.2,26.4,27.2,39.5C1247.3,634.3,1249.9,638.5,1252.5,642.8z M1181,564.1c-0.9,1.2-1.9,2.4-2.8,3.6
	c2.8,2.4,5.4,5.3,8.6,6.8c0.9,0.4,3.7-3.3,7-6.3C1188,566.3,1184.5,565.2,1181,564.1z M1105.1,636.9c-0.6-0.2-1.2-0.8-1.7-0.6
	c-0.4,0.2-0.5,1-0.8,1.6c0.6,0.2,1.2,0.8,1.7,0.6C1104.7,638.4,1104.8,637.5,1105.1,636.9z M1211.7,643.4c-0.1-0.5-0.1-1-0.2-1.5
	c-1.5,0.2-3,0.4-4.5,0.7c0.1,0.4,0.1,0.8,0.2,1.3C1208.7,643.7,1210.2,643.6,1211.7,643.4z"/>
<path class="st1" d="M481.8,690.9c-39.4-4.2-77.7,1.2-115.2,13.6c-4.4,1.5-9,2.4-13.4,3.5c2-5.5,5.6-11.1,5.7-16.6
	c0.3-13.9-1.2-27.8-1.7-41.6c-0.3-8.1-0.1-16.1-0.1-28.1c-13.1,6.3-24,10.1-33.3,16.5c-9.6,6.5-17.1,15.9-26.3,23.1
	c-3.1,2.5-8.8,3.8-12.5,2.7c-2-0.6-2.9-7.3-3.1-11.2c-1-19.3-2-38.5-2.1-57.8c-0.1-15.9,1.1-31.9,1.7-47.8c3.4,0.4,7.8,2.5,10,1.1
	c10.2-6.4,19.8-13.7,29.4-20.9c8.6-6.4,17-13.2,26.6-9.6c14.8,32.2,11.1,65,11.8,95.9c12.7,3.9,22,1,29.6-8.4
	c1.2-1.5,5.8-0.4,8.7-0.2c8.9,0.7,17.7,2,26.5,2.1c1.9,0,5.4-3.4,5.7-5.5c1.3-10.6,2.7-21.4,2.2-32c-0.7-13,4.9-20.5,15.8-26.3
	c6.6-3.5,11.4-10.3,17.9-14c3.9-2.2,10.6-3.2,14.4-1.4c10.9,5.2,11.9,5.1,12.4-7.6c0.2-4.3-1.8-10.2,6.1-9.6
	c0.1,32.9,0.3,65.8,0.4,98.8c-0.1,8.7-0.2,17.4-0.3,26.1c-6.4,1.5-11.8,3.1-19.4,0.8c-8.7-2.6-20.6-5.2-28.6,5.3
	c-3.9,5.1-8.7,9.4-13.1,14.1c-1.1-0.6-2.2-1.2-3.2-1.8c0,8.5,0.2,17-0.1,25.5c-0.2,5.6,2.1,7.6,7.6,7.5c10.4-0.2,20.8-0.3,31.1,0.2
	C476.2,687.3,479,689.6,481.8,690.9z"/>
<path class="st2" d="M494.7,999.9c-1.7,0.8-3.5,1.7-5.2,2.5c-1,0.4-2,0.8-3,1.2c-0.4,0.5-0.8,0.7-1.4,0.7c-3.9,2.3-7.9,4.6-11.8,7
	c-18.6,16.1-38.7,30.7-55.3,48.6c-22.3,24.1-36.3,53.7-46.8,84.8c-3.3,9.9-7.8,11.6-14.1,4.3c-26.5-30.8-52.4-62.2-78.4-93.4
	c-1.1-1.3-1.6-3.2-2.3-4.8c1.6-1.9,4.3-3.7,4.7-5.9c0.5-3-1-6.3-1-9.4c-0.1-39.4-0.1-78.8-0.1-118.2c15.9,0.8,31.7,1.9,47.6,2.2
	c8.9,0.2,17,0.5,21.2,10.3c0.6,1.4,4,1.7,6.2,2.5c8.4,3,16.8,5.9,27,9.5c-11.9,14.7-23.4,28.8-36.4,44.9c12.9,2,23.9,3.7,36.1,5.6
	c-2.3,5.9-4.2,11.1-6.4,16.9c11.5-2,22.6-3.7,33.5-6.1c2-0.4,4.2-3,5-5.1c2.4-6.9,7.5-7.2,13.7-7.6c8.1-0.6,16-2.5,24.2-3.9
	c-5.9-7.8-10.3-13.6-14.7-19.5c3.6,0.3,7.2,0.6,10.9,0.7c3,0.1,6.7,0.8,8.9-0.6c5-3.3,9.9-7.2,13.8-11.7
	c8.3-9.4,15.9-19.4,24.4-29.9c6.2,9.5,12.2,18.5,18.1,27.6c-7.7,6.8-21.7,8.1-18.3,20.5c3.3,12.2,14.9,14.1,25.7,12.8
	C511.9,990.7,503.3,995.3,494.7,999.9z M366.8,1076.6c-8.4,0-14.3,1.2-19.5-0.3c-6.3-1.8-12-5.8-18-8.8c-6.3-3-12.5-6.6-19.1-8.5
	c-3.2-0.9-7.3,1.2-11,1.9c-0.5,0.9-1,1.9-1.6,2.8c9.3,5,8.2,11.5,3.4,18.8c20.8,22.3,41.3,44.2,63.1,67.5
	c10.4-22.7,19.3-42.3,28.5-62.3c-3.1-2.7-6.7-6-10.8-9.6C374.6,1085.9,370,1079.9,366.8,1076.6z M480.8,1001.7c1.8-2,3.6-4,5.4-5.9
	c-2.1-1.6-4.3-3.2-6.5-4.7c-0.1,0-1.8,1.6-1.6,2.2C478.9,996.1,479.9,998.9,480.8,1001.7z"/>
<path class="st3" d="M281.6,547c-0.6,15.9-1.8,31.9-1.7,47.8c0.1,19.3,1.1,38.5,2.1,57.8c0.2,4,1.1,10.7,3.1,11.2
	c3.7,1.1,9.3-0.3,12.5-2.7c9.1-7.2,16.7-16.6,26.3-23.1c9.3-6.3,20.2-10.2,33.3-16.5c0,12-0.2,20.1,0.1,28.1
	c0.5,13.9,2,27.8,1.7,41.6c-0.1,5.6-3.7,11.1-5.7,16.6c-1.3,0.4-2.7,0.8-4,1.2c-13.1,5.8-26.1,11.6-39.2,17.3
	c-0.9,0.5-1.8,1-2.7,1.6c-4.8,3.2-9.7,6.3-14.5,9.5c-0.8,0.5-1.7,0.9-2.5,1.4c-2.7,1.7-5.4,3.5-8.1,5.2c-1.1,0.4-2.2,0.7-3.4,1.1
	c0,0-0.3,0.1-0.3,0.1c-3.8,2.4-7.5,4.7-11.3,7.1c-2.1,0.4-4.3,0.8-6.4,1.2c-14.7,0.4-29.4,0.9-44.1,1.3c-6.2-1.1-12.6-3.4-18.7-3
	c-10.7,0.7-13.4-5.2-12.8-13.6c0.9-13,2.8-26,4.5-38.9c0.2-1.3,1.9-2.8,3.3-3.5c6-3,12.4-5.3,18.1-8.8c2.8-1.8,5.6-5.6,6-8.8
	c1.4-10.2,1.7-20.5,2.3-30.8c0.6-9.2,2.3-18.5,1.5-27.6c-2.8-35.3-5.6-70.2,18.7-100.7c9.5-11.9,10-13.1,21.5-5.8
	c2.6-7.2,5.2-14.6,8.3-23.3c5.5,6.4,8.8,10.3,12.2,14.2C281.6,518.5,281.6,532.8,281.6,547z"/>
<path class="st4" d="M188.7,837.8c-1.8-9.3-3.9-18.7-5-28.1c-0.1-1.1,5.5-4.3,8.4-4.1c17.4,0.7,34.8,1.7,52.2,3.4
	c19.5,1.8,37.8,0.2,52.7-14.4c1.4-0.7,2.8-1.5,4.2-2.2c0,0,0.1-0.1,0.1-0.1c2.1-1.4,4.3-2.8,6.4-4.2c0,0,0,0,0,0
	c5.6-2.9,11.2-5.8,16.8-8.7c0,0,0.3-0.3,0.3-0.3c3.1-0.8,6.3-1.1,9.2-2.3c14.1-5.8,28-12.2,42.3-17.5c7.6-2.8,15.8-4.5,23.8-5.5
	c10.8-1.3,21.8-2,32.8-2c7.2,0,16.7-1,21,3c17.3,15.8,38.4,23,60,28.3c17.8,4.4,33.9,11.1,48.8,21.5c1.9,1.3,4.8,2.6,6.5,2
	c1.5-0.6,2.8-3.8,2.8-6c0.3-9.3,0.2-18.6,0.2-27.9c0.7,0.9,1.5,1.8,2.2,2.7c-0.1,23.5-0.2,47.1-0.3,70.6
	c-11.7,3.6-21.3,0.6-29.5-8.7c-3.9-4.4-9.3-7.6-14.4-10.9c-5.3-3.4-9.2-2-11.5,4.3c-1.5,4.2-4.1,7.9-6.5,12.3
	c-6.3-7.3-11.1-12.7-16.4-18.9c-3,4.6-5.5,7.7-7.2,11.1c-7.8,16.5-20,25.1-38.9,23.7c-9.4-0.7-18.9,0-28.3,0.1
	c-9.9-7.4-0.2-8.1,1.7-9.8c-8.8-16.4-17.6-32.8-26.4-49.2c-3.6,16.3-9.9,32.1-23.1,44.2c-1.2,1.1-0.8,3.8-1.2,5.7
	c-8.7,0.8-17.5,1.7-26.2,2.5c-9.7-11.7-19.4-23.4-29.7-35.8c-4.2,17.7-17.3,29.1-30.8,40c-1.9,0.7-3.8,1.3-5.7,2
	c-0.2-10-0.4-19.9-0.5-29.9c0-1.4,0-2.8,0-4.2c-0.1-1.4-0.3-2.8-0.4-4.3c0.2-2.2,0.3-4.5,0.5-6.7c-6.8,0-13.6,0.2-20.4,0
	c-21.3-0.7-42.6-1.3-63.9-2.3c-7.6-0.4-9.3,3-8.4,9.6C187.9,826.6,188.2,832.2,188.7,837.8z"/>
<path class="st5" d="M976.7,943.5c1.4,0,2.8,0,4.2,0.1c0.4,3.1,0.7,6.2,0.9,8.1c15.9,1.5,30.9,2.6,45.9,4.4
	c5.5,0.6,11.9,5.2,16.2,3.6c18.8-6.9,37.8,9.7,56.2-1.3c0.9-0.5,2.7,0.7,4.1,1c20.5,3.2,41.1,6.4,61.6,9.6c3.1,0.5,6.3,1.1,9.3,2.2
	c9.5,3.4,15.2-0.3,19.5-8.9c1.4-2.7,5.2-4.3,7.8-6.4c-0.6,14.8-1.6,29.7-1.7,44.5c-0.1,8,1.2,16,1.8,24.1
	c-3.6,5.7-7.2,11.4-10.7,17.1c-1.1-2.4-1.8-6.6-3.4-7c-9.7-2.2-19.6-5.3-29.3-4.9c-24.5,0.9-48.9,6.5-73.6,3.8
	c-12.9-1.4-25.8-3.4-38.7-5.2c-1.1-0.2-2-1.9-3.1-2.7c-4.6-2.9-9-7.4-14-8.1c-17.7-2.5-35.6-3.6-55.2-5.4c0-3.6,0.4-8.5-0.1-13.4
	c-0.3-2.5-1.6-6.6-3.3-7.1c-11.2-3-23.3-8.6-33.9-6.7c-13.1,2.3-25.1,1.1-37.5-1c-0.2-1.4-0.3-2.8-0.4-4.1
	c0.2-5.8,0.3-11.5,0.5-17.3c0.2-0.2,0.6-0.5,0.6-0.6c-0.1-0.5-0.4-1-0.6-1.5c0-4.3,0-8.6,0-12.9c0.2-0.2,0.7-0.5,0.6-0.7
	c-0.1-0.5-0.4-1-0.7-1.5c-0.1-6.4-0.1-12.7-0.2-19.1c6.7,3.2,13.1,7.7,20.1,9.3c13.1,2.9,26.6,4.1,39.9,6.1c1.4,0.1,2.8,0.1,4.2,0.2
	C968,942.2,972.4,942.9,976.7,943.5z"/>
<path class="st6" d="M932,748.8c12.1-9.2,23.3-19.9,36.4-27.4c33.4-19.1,70-25.4,108.3-25c49.1,0.5,98.2-0.2,147.3-0.3
	c11.6,0,14.5,3.7,8.4,13.1c-17.1,26.3-34.8,52.3-52.5,78.2c-2.1,3.1-5.9,5.1-8.9,7.6c-10.6-10.9-21.3-21.9-30-30.9
	c-13.4,6.3-24.9,11.7-36.5,17.2c4.5-2.7,9.5-5,13.5-8.4c4.2-3.5,7.6-8.1,10.1-13.7c-26.8-0.4-48.8,9.8-70.4,27.8
	c0.9-16.2,12.3-29,6-46c-4.3,3.8-7.9,6.3-10.7,9.5c-7,8.2-13.3,16.8-20.4,24.9c-2.1,2.4-5.6,3.5-8.4,5.2c8.5-14.5,8.4-14.6-8.6-21.7
	c-2.3-1-4.7-1.7-6.8-3c-11.2-6.5-25.3-8.6-31.6-22.6c-2.7-5.9-7.3-6.8-13.9-2.2C953.5,738,942.5,743,932,748.8z"/>
<path class="st7" d="M899.7,983.8c12.5,2.1,24.4,3.3,37.5,1c10.6-1.9,22.7,3.7,33.9,6.7c1.6,0.4,3,4.5,3.3,7.1
	c0.5,4.8,0.1,9.7,0.1,13.4c19.6,1.8,37.5,2.9,55.2,5.4c4.9,0.7,9.4,5.2,14,8.1c1.2,0.7,2,2.5,3.1,2.7c12.9,1.9,25.7,3.8,38.7,5.2
	c24.7,2.7,49.1-2.9,73.6-3.8c9.7-0.4,19.6,2.7,29.3,4.9c1.6,0.4,2.3,4.6,3.4,7c-17.9,23.8-35.8,47.6-53.7,71.3
	c2.5-5.2,5.1-10.3,7.5-15.3c-8.5-6.7-14.8-1.5-23.6,0.9c-13.6,3.7-29.9,8.1-44.9,0.3c-2.9-1.5-6.8-2.1-10-1.6
	c-7.5,1.1-14.9,3.1-23.7,5.1c0-5.5,0.4-9.4-0.2-13.2c-0.3-2.1-1.6-4.8-3.3-5.7c-7.4-4.1-15.5-7-22.5-11.5c-8.1-5.2-14.2-4.9-22,1.3
	c-4.2,3.3-12,2.6-18,2.2c-1.1-0.1-2.2-7.2-2.6-11.2c-0.5-4.6,0.8-9.6-0.4-13.8c-0.9-3.2-4.8-7.9-7.2-7.9
	c-23.3,0.8-45.9-1.8-67.5-11.2C899.7,1015.4,899.7,999.6,899.7,983.8z"/>
<path class="st8" d="M899.6,1031.2c21.6,9.4,44.2,12,67.5,11.2c2.4-0.1,6.3,4.7,7.2,7.9c1.3,4.3,0,9.2,0.4,13.8
	c0.4,4,1.5,11.1,2.6,11.2c6.1,0.4,13.9,1,18-2.2c7.9-6.2,13.9-6.5,22-1.3c7.1,4.5,15.1,7.4,22.5,11.5c1.7,0.9,3,3.7,3.3,5.7
	c0.5,3.8,0.2,7.7,0.2,13.2c8.8-1.9,16.2-3.9,23.7-5.1c3.2-0.5,7.1,0.1,10,1.6c15,7.7,31.3,3.4,44.9-0.3c8.8-2.4,15.2-7.6,23.6-0.9
	c-2.4,4.9-4.9,10.1-7.5,15.3c0,0-0.2,0.2-0.2,0.2c-0.6,0.7-1.3,1.3-1.9,2c-0.7,0.8-1.4,1.6-2.1,2.4c-13.7,2-17.3,14.3-23.7,23.7
	c-6.3,5.8-12.6,11.6-19,17.4c-1.6,1.3-3.2,2.6-4.8,4c-14.3,10.9-28.6,21.8-42.9,32.7c-0.1-10.4,0.1-20.8-0.4-31.1
	c-0.1-3.3-0.9-7.8-3.1-9.7c-10-8.4-20.9-15-34.9-13.1c-9.7,1.3-19.5,2.4-30.7,3.8c0-5.9-0.3-10.8,0.1-15.7
	c0.7-8.5-2.1-11.7-11.3-12.4c-12.6-0.9-25.1-6.6-37.5-6.1c-13.4,0.6-21-4-26.4-15.1C899.6,1074.2,899.6,1052.7,899.6,1031.2z"/>
<path class="st9" d="M899.6,1031.2c0,21.5,0,43,0,64.5c0,17.9-0.1,35.9-0.1,53.8c0.7,38.5,1.4,76.9,2,115.4
	c-20.1,5.3-40.3,10.6-60.4,15.9c0.1-0.7,0-1.4-0.2-2.1c0.1-22.3,0.1-44.5,0.2-66.8c0-24.4,0-48.8-0.1-73.2c0-30.1,0-60.2,0.1-90.3
	c0-11.5-0.1-23-0.1-34.5c0-24.4,0-48.8,0.1-73.2c0.1-4.3,0-8.6,0.3-12.8c0.6-10.9,1.4-21.7,2.1-32.6c0,0,0.1,0.9,0.1,0.9
	c0.3,2.7,1,5.5,1,8.2c0.4,27.7,1.3,55.4,0.8,83.1c-0.2,11.6,1.2,20.2,14.5,22c0.6,0.1,1.1,0.9,1.9,1.5c-0.6,2-1.2,4.2-1.9,6.5
	c6.6,0.7,12.7,1,18.5,2.1c15,3,18.5,0.2,19-14.9c0.3-8.4,1.3-16.7,2-25.1c0.1,1.4,0.3,2.8,0.4,4.1
	C899.7,999.6,899.7,1015.4,899.6,1031.2z"/>
<path class="st10" d="M871.1,734.8c-6.9,9.9-13.8,19.8-20.7,29.7c-0.8,1.8-1.6,3.7-2.4,5.5c-0.4,1.3-0.7,2.5-1.1,3.7
	c-0.4,1.4-0.8,2.9-1.3,4.3c-0.3,0.7-0.7,1.4-1,2.1c-1.1,2.8-2.3,5.7-3.4,8.5c-3.7,7.3-6.8,15-11.4,21.7c-1.8,2.6-7.5,5-10.2,4
	c-10.4-3.6-20.3-8.4-30.3-13c-5.2-2.4-10.7-4.5-15-8.1c-3.7-3-5.8-7.9-8.6-12c0.9-24.3,1.8-48.6,2.7-72.9c1.1-3.2,2.1-6.5,3-9
	c13.6-0.6,24,4.7,32,15.2c1.9,2.5,5,6.2,7.2,5.9c13.9-1.3,20.3,9.9,30.7,18.6c0-26,0-49.8,0-73.7c0-8.6-0.1-17.3-0.1-25.9
	c0.1-10,0.2-19.9,0.3-29.9c9.6-7,17.1-1.9,25.8,3.1c10.4,6,22.1,9.7,33.3,14.4c0.2,4.2,0.5,8.4,0.7,12.6c0.1,15.4-0.4,30.8,0.5,46.1
	c0.7,11.5-2.7,20.1-12.1,26.7c-1.6,1.1-2,3.9-3,6c-0.2,0.5-0.5,0.9-1.1,1.1c0,0-0.9,0.1-0.9,0.1l-0.1,0.9c-0.3,0.5-0.7,0.9-1.2,1
	c-1.1,1.2-2.1,2.3-3.2,3.5c-1.7,1.7-3.5,3.4-5.2,5.1C873.7,731.7,872.4,733.2,871.1,734.8z"/>
<path class="st3" d="M637,745.1c-17-8.4-33.9-16.7-50.9-25.1c-3.9-1.9-7.8-3.9-11.7-5.9c-0.7-32.7-1.3-65.3-2-98
	c0.7-20.2,1.3-40.3,2-60.5c2.2-1.7,5.6-2.9,6.3-5c4.7-15.2,13.9-20.9,29-17.3c2.6,0.6,7.2,1.2,8.1-0.1c5.4-8.4,13.7-17.1,14.2-26
	c1.7-31.8,0.6-63.7,0.6-95.5c0-1.4,0.1-2.8,0.1-4.2c0.7-0.1,1.3-0.2,2-0.2c0.3,35.8,0.5,71.6,0.8,107.4c0,58.7,0,117.4,0.1,176.1
	C636,708.8,636.5,726.9,637,745.1z"/>
<path class="st11" d="M494.7,999.9c8.6-4.6,17.2-9.1,25.6-13.6c-10.9,1.3-22.4-0.6-25.7-12.8c-3.4-12.4,10.6-13.7,18.3-20.5
	c-6-9.1-11.9-18.2-18.1-27.6c-8.5,10.4-16.1,20.4-24.4,29.9c-3.9,4.5-8.8,8.4-13.8,11.7c-2.2,1.4-5.9,0.7-8.9,0.6
	c-3.6-0.1-7.2-0.5-10.9-0.7c-6.7-8.3-13.4-16.7-20.6-25.6c9.6-3,17.2-5.4,25-7.8c-10.2-14-19.5-26.8-29.9-41.1
	c6.7-0.6,10.6-1,14.4-1.3c-1.4,9.1,3.4,18.1,9.9,17.3c21.4-2.8,38.8-13.7,52.5-29.7c8-9.3,7.9-10.1,17.2-1.2
	c5.6,5.4,10.5,12.4,17.2,15.5c16.2,7.5,33.4,12.1,51.7,9.2c0.1,25.6,0.3,51.1,0.4,76.7c-8.6,1.9-17.3,3.5-25.8,5.8
	C530.7,989.4,512.7,994.7,494.7,999.9z"/>
<path class="st12" d="M1202.5,955.8c-2.7,2.1-6.5,3.6-7.8,6.4c-4.3,8.6-10,12.3-19.5,8.9c-3-1.1-6.2-1.7-9.3-2.2
	c-20.5-3.2-41.1-6.4-61.6-9.6c-1.4-0.2-3.2-1.5-4.1-1c-18.4,11-37.4-5.6-56.2,1.3c-4.4,1.6-10.7-3-16.2-3.6
	c-14.9-1.7-29.9-2.9-45.9-4.4c-0.2-2-0.6-5-0.9-8.1c24-2.5,48.4-3.1,72-8c30.2-6.2,58-19.8,82.5-38.3c22-16.6,42-36,63-54.1
	c2.1-1.8,4.4-3.5,6.6-5.2c-0.6,5.6-1.3,11.1-1.9,16.7c0.5,1.5,1,3,1.5,4.5c-0.1,5.8-0.3,11.6-0.4,17.3
	C1203.6,902.9,1203.1,929.3,1202.5,955.8z"/>
<path class="st2" d="M574.6,978.6c-0.1-25.6-0.3-51.1-0.4-76.7c0-18.6,0-37.2,0-55.8c0.1-23.5,0.2-47.1,0.3-70.6
	c17.9,8.6,35.8,17.1,53.8,25.7c0,1.2,0,2.5,0.1,3.7c1.4,14.8,3.3,29.5,4,44.4c0.4,7.7-1.6,15.6-1.7,23.4
	c-0.2,13.1-0.2,26.2,0.5,39.3c0.6,11.1,2.4,22.2,3.6,33.3c0.3,2.7,0.5,5.4,0.8,8c-0.3,3.1-0.7,6.1-1,9.2c-2.5,0.3-5,0.7-7.5,1
	c-0.1,0.7-0.2,1.5-0.4,2.2c2.6,1.1,5.3,2.1,7.9,3.2c-0.6,3.4-1.2,6.7-1.8,10.1C613.4,978.8,594,978.7,574.6,978.6z"/>
<path class="st13" d="M1067.2,252.3c6.5-7.9,12.9-15.9,19.4-23.8c0.7-0.6,1.4-1.2,2.1-1.9c0,0,0.1-0.1,0.1-0.1
	c1.4-0.7,2.7-1.4,4.1-2.1c0,0,0.1-0.1,0.1-0.1c1.4-1.4,2.8-2.7,4.3-4.1c0,0,0.1-0.1,0.1-0.1c0.7-0.7,1.3-1.3,2-2
	c0,0,0.1-0.1,0.1-0.1c0.8-0.6,1.5-1.3,2.3-1.9c0.6,0,1.2-0.2,1.8-0.4c5-1.7,10-3.2,14.8-5.3c6.8-2.9,13.2-7.1,20.2-9.3
	c10.4-3.3,21.2-6.9,31.9-7.4c16.7-0.7,34.1-9.7,50.6,2.9c3.8,2.9,14.4,3.9,16.1,1.5c5.6-7.7,12.5-5.9,19.3-5.7
	c6.9,0.2,13.7,1.3,20.1,2c1.9,6.3,3.7,12.6,5.6,19c0.8-0.2,1.7-0.4,2.5-0.5c2.3-5.3,4.6-10.7,6.9-16c0.6,0.3,1.2,0.6,1.8,0.9
	c0,12.5,0,25.1,0,37.6c0.5,5,1.1,9.9,1.6,14.9c-0.7,2.2-1.5,4.4-2.2,6.6c-17,0.4-33.9,1.2-50.9,1.1c-5.3,0-10.7-2.4-16-3.7
	c0.1-0.6,0.2-1.2,0.3-1.9c4.4-0.1,9.1,0,4.4-6.4c0.3-1.9,0.6-3.9,0.9-5.8c4.4-4.8,8.9-9.6,13.3-14.5c-1.4-1.4-2.8-2.8-4.2-4.2
	c-6.4,5.9-12.7,11.7-19.1,17.6c-2.6,1.7-5.2,3.4-7.8,5.2c-2.8,0.1-6.3-0.7-8.4,0.6c-13.6,8.2-17.8,8.2-30-1.4
	c-2.5-2-4.6-4.7-7.4-5.9c-1.3-0.6-3.8,1.7-5.8,2.7c-1.6,4.8-3.2,9.6-4.8,14.4c-4,2-8,4-12,6c0-1,0.1-2,0.1-3
	c-9.6-0.3-19.3,0.1-28.7-1.1c-9.1-1.1-17.7-10.5-27.1,1c-2.5-6-4.4-10.6-6.6-15.8c-5.9,4.2-10.7,7.6-15.5,11.1L1067.2,252.3z"/>
<path class="st8" d="M709.3,1134.5c0.2,20,0.3,40.1,0.5,60.1c-5.8-0.6-11.6,7.5-17.3,0.5c-7.2-8.8-16.6-9.6-26.8-9.2
	c-9.5,0.4-19.1,0-28.7,0c-0.1-8.6-0.1-17.1-0.2-25.7c0-5,0.9-10.3-0.3-15c-1.1-3.9-3.9-9.1-7.3-10.4c-12.3-4.9-25.2-8.5-37.9-12.4
	c-5.6-1.7-11.3-3-17-4.5c-1.1,5.8-2.2,11.5-3.6,18.8c-11.4-6.2-25.6-4.4-35-15.8c-2.2-2.6-7.8-2.2-11.5-3.9
	c-8.6-3.7-17-7.7-25.5-11.7c-3.8-1.8-7.5-4.8-11.4-5.3c-10.4-1.3-16.1-7.9-20.6-16.2c2.9-2.6,5.9-5.2,8.8-7.8
	c1.4-0.9,2.9-1.7,4.3-2.6c0.5-0.5,1-1.1,1.6-1.6c0.9-0.5,1.8-1.1,2.7-1.6c1.6-0.9,3.1-1.7,4.7-2.6c3,1.4,5.9,3.4,9.1,4.2
	c8.8,2,19.7,0.9,26.1,5.8c13.9,10.8,30.8,10.2,45.5,12.1c18.3,2.4,34.9,8.3,52,13.3c14.4,4.2,23.6,17.4,39.2,21.5
	C676.8,1129,692.7,1132.8,709.3,1134.5z"/>
<path class="st14" d="M635.4,514.6c-0.3-35.8-0.5-71.6-0.8-107.4c0.6-11.4,1.2-22.7,1.8-34.1c0.9-0.1,1.7-0.1,2.6-0.2
	c0.6,12.6,1.2,25.2,1.9,40.3c5.9-3.1,9.5-4.4,12.4-6.5c13.9-10.3,34.5-11.3,49.5-2.8c1.7,1,4.9-0.8,7.4-1.3
	c7.8-3.5,15.6-7,23.3-10.4c-1.1,1.3-2,3.4-3.4,3.9c-16.1,5.5-19.1,17.4-19,33c0.6,93.7,0.5,187.4,0.7,281.2
	c0.1,19.2,0.6,38.5,1.2,57.7c0.3,8-3.8,10.8-10.6,8.7c-4.1-1.3-7.4-5-11.1-7.6c2.3,0.6,4.8,1,7,1.9c9.2,3.8,11.3,2.6,11.6-7.4
	c0.1-3.6,0.3-7.1,0.1-10.7c-0.7-16.2-1.6-32.5-2.4-48.7c0-57.9,0-115.9,0-173.8c0-7.8-10.8-23.8-16.6-25.6
	c-5.8-1.8-11.5-3.9-18.2-6.2c-4.7,0.3-10.9,0.8-17.2,1.2c-7.1,0.5-14.8-0.2-15,10.5C640.6,511.8,637.2,513.2,635.4,514.6z"/>
<path class="st13" d="M901.6,499.7c1.4,4.7,3.3,9.2,4,14c0.8,5.4-1.5,11.7,7.2,13c1.7,0.3,2.7,5.1,4.2,7.8c2.9,5.4,5.9,8.7,9.3,1.7
	c8.1,4.5,16.1,8.9,24.1,13.2c1.2,0.7,2.8,0.9,3.9,1.7c14.7,9.8,29.3,19.6,44,29.4c1.2,0.8,2.2,2.1,3.4,2.5
	c21.8,5.7,39.3,19.4,58.4,30.3c5.4,3.1,12,4.2,19.1,6.6c-1.4,2.2-3,4.5-5.2,7.9c7,2.7,13.8,5.4,23.5,9.2
	c-13.8,2.8-24.2,4.9-34.7,6.9c-15.6,1.8-31.1,3.6-46.7,5.3c-0.9,0.1-1.9-0.8-2.9-1.3c-4.7-3.6-9.1-7.7-14.2-10.6
	c-21.6-12.4-43.5-24.5-65.2-36.8c-1.5-0.8-3.5-2.1-3.7-3.4c-2.3-14.1-12.4-11-23-10c-0.5-4-0.6-8.1-1.5-12c-0.7-3-2.6-5.7-3.9-8.6
	c0-5-0.1-10-0.1-14.9c0.3-0.2,0.8-0.5,0.7-0.6c-0.2-0.5-0.5-1-0.8-1.5C901.5,532.7,901.6,516.2,901.6,499.7z"/>
<path class="st15" d="M1045.6,802.9c1.1-0.7,2.2-1.5,3.3-2.2c3.2-0.6,6.4-1.2,9.7-1.8c-0.7,11.6,3.2,18.5,15.6,22.5
	c12.5,4,23.9,12,35.3,19c2,1.2,1.9,6,2.7,9.2c-29.1,22.9-61.9,36.3-99,39.2c-27.1,2.1-53.5-2-79.6-8.4c-5.1-1.2-9.7-4.5-14.5-6.8
	c0.2-1.1,0.5-2.1,0.7-3.2c8.1-2.3,16.1-4.6,24.2-6.8c32.4-8.8,59.6-26.8,84.8-48.4c4.3-3.7,9.1-6.8,13.7-10.2
	C1043.5,804.3,1044.6,803.6,1045.6,802.9z"/>
<path class="st16" d="M1288.4,374.8c-0.5,1.3-0.9,2.7-1.3,4c-0.9,0.2-1.7,0.3-2.6,0.5c-3.3-0.5-8.7,0-9.5-1.6
	c-3.5-7.6-7.6-3.2-12-1.8c-7.6,2.3-14.8,2.9-17.3-7.3c1.8-2.5,3.6-4.9,7.1-9.8c-13.4,4.5-24.2,8.1-34.9,11.7
	c-2.5-1.3-4.9-3.4-7.5-3.8c-11.3-1.6-22.8-2.2-34.1-4c-17.7-2.7-35.2-6.4-52.9-9.1c-7-1-14.3-0.3-21.4-0.4
	c-2.3-10.7-4.5-21.4-6.8-32c0-4.3,0-8.6,0.1-12.9c0.8-0.7,1.7-2.1,2.4-2c15.1,1.5,30.2,3.4,45.3,4.5c4.1,0.3,8.4-1.7,12.6-2.6
	c1.7,7.2,3.5,14.5,5,20.8c9.8-6.2,19.6-12.3,29.4-18.4c2.6,3.1,4.7,7.1,7.9,9c16.3,9.8,34.7,7.3,52.5,8c14.7,0.5,29.5,0.3,44.3,0.3
	c0.4-0.1,0.9-0.1,1.3-0.2c-0.3,7.1-0.6,14.2-0.9,21.4c0,0-0.9-0.2-0.9-0.2C1289.1,356.8,1283.7,364.7,1288.4,374.8z"/>
<path class="st17" d="M466.7,1084.1c4.6,8.3,10.2,14.9,20.6,16.2c4,0.5,7.6,3.5,11.4,5.3c8.5,3.9,16.9,8,25.5,11.7
	c3.8,1.6,9.3,1.2,11.5,3.9c9.3,11.4,23.5,9.6,35,15.8c1.4-7.3,2.5-13,3.6-18.8c5.7,1.5,11.4,2.8,17,4.5c12.7,3.9,25.6,7.5,37.9,12.4
	c3.4,1.3,6.2,6.5,7.3,10.4c1.3,4.7,0.3,9.9,0.3,15c-7.7-1.1-16.1-0.6-23-3.6c-10.4-4.6-19.8-11-32.1-9.6c-2.5,0.3-5.4-3-9.3-5.4
	c0,8.9,0,17.1,0,25.2c-0.1,9.3-0.1,18.5-0.2,27.8c-3,2.1-6.1,4.1-8.8,6c-5.1-4.8-9.1-10.2-14.5-13c-12.1-6.3-25-11-37.3-17
	c-7.6-3.7-14.5-7.5-15.4-18.3c-0.4-4.7-8.8-13.1-11.8-12.4c-9.8,2.3-14.4-4.6-21-8c-5.3-2.6-10.9-7.5-15.9-7
	c-8.3,0.8-6.1-2.4-4.3-6.4c2.7-6.2,5.7-12.2,8.6-18.3C456.8,1094.9,461.8,1089.5,466.7,1084.1z"/>
<path class="st17" d="M899.5,1149.5c0-17.9,0.1-35.9,0.1-53.8c5.3,11.1,13,15.7,26.4,15.1c12.4-0.5,24.9,5.2,37.5,6.1
	c9.2,0.7,12,3.9,11.3,12.4c-0.4,4.9-0.1,9.8-0.1,15.7c11.2-1.4,21-2.4,30.7-3.8c14-1.9,24.9,4.7,34.9,13.1c2.2,1.9,2.9,6.3,3.1,9.7
	c0.4,10.4,0.3,20.8,0.4,31.1c-5.1,3.5-10.3,7-15.4,10.5c-0.7,0-1.3,0.3-1.8,0.9c-9.2,5.2-18.4,10.4-27.5,15.6
	c-2.5-2.6-5-5.2-7.4-7.8c-1.3,3.5-2.7,7-4,10.6l-0.1,0.1c-2.2,2.2-4.3,4.3-6.5,6.5l-0.4,0.5c0,0-0.6-0.2-0.6-0.2
	c-1.8-3.4-5-6.8-5.2-10.3c-0.6-13.9-0.3-27.9-0.3-41.8c0-9.8,2.8-21.2-13.6-20c-1.7,0.1-3.4-2.6-5.4-3.2c-5.2-1.7-10.7-4.7-15.9-4.3
	c-10.2,0.8-20.3,3.5-29.4,5.2C907,1154.8,903.2,1152.2,899.5,1149.5z"/>
<path class="st18" d="M451.8,1100.2c-2.9,6.1-5.9,12.1-8.6,18.3c-1.8,4-4,7.3,4.3,6.4c5-0.5,10.7,4.4,15.9,7c6.6,3.3,11.2,10.2,21,8
	c3-0.7,11.4,7.7,11.8,12.4c0.9,10.8,7.8,14.7,15.4,18.3c12.3,6,25.2,10.7,37.3,17c5.4,2.8,9.4,8.3,14.5,13c2.8-1.9,5.8-4,8.8-6
	c0,24.3,0,48.7,0,73c-25.3-9.6-50.6-19.3-75.9-28.9c0.9-1.9,2.6-3.8,2.6-5.6c-0.4-13.9-1.1-27.8-2-41.6c-0.1-1.8-1.4-3.8-2.8-5.1
	c-3.5-3.5-8.1-6-10.8-10c-4.2-6.1-9.3-7.8-16.4-7.7c-16.4,0.3-16.5-0.1-20.6-14.9c-7.1-2.3-13.6-4.5-20.2-6.6
	C434.7,1131.5,443.2,1115.9,451.8,1100.2z"/>
<path class="st18" d="M899.5,1149.5c3.8,2.7,7.5,5.3,10.9,7.8c9.1-1.7,19.2-4.4,29.4-5.2c5.2-0.4,10.7,2.5,15.9,4.3
	c2,0.7,3.7,3.3,5.4,3.2c16.4-1.2,13.6,10.3,13.6,20c0,13.9-0.4,27.9,0.3,41.8c0.2,3.5,3.4,6.9,5.2,10.3
	c-17.4,8.4-34.7,17.3-52.4,25.1c-8.3,3.7-17.4,5.5-26.2,8.1C900.8,1226.4,900.1,1188,899.5,1149.5z"/>
<path class="st19" d="M572.5,616.1c0.7,32.7,1.3,65.3,2,98c-13.8-4.4-27.5-8.9-41.3-13c-11.2-3.3-22.5-6-33.8-8.9
	c-0.7-11.9-1.9-23.9-2.1-35.8c-0.1-6.9,1.2-13.9,1.8-20.9c0.1-8.7,0.2-17.4,0.3-26.1c8.7-5.3,17.3-11,28.4-6.6
	c1.3,0.5,3.3-1.1,5.1-1.2C548.1,600.4,561,606.3,572.5,616.1z"/>
<path class="st8" d="M841.1,1048.4c0,30.1,0,60.2-0.1,90.3c-4.3-0.1-9-1.8-12.3-2.3c-12.7-1.8-23.5-5.4-34.7-12
	c-7.4-4.4-18-3.5-27.1-5c0.2-15.8,0.5-31.6,0.7-47.4c0.4-2,0.8-4,1.1-6c-0.8-5.9-1.5-11.7-2.3-17.6c0-3.6,0-7.2-0.1-10.8
	c0.7-1.4,1.3-2.8,2-4.2c8-0.3,16.4-2.3,23.9-0.5C808.8,1037,824.9,1043.1,841.1,1048.4z"/>
<path class="st20" d="M591.6,213.2c1.3-0.2,2.6-0.4,4-0.6c11.1-2.8,22.1-5.6,33.2-8.4c1.3-0.1,2.6-0.2,3.9-0.3
	c0.7,9,1.4,18,2.2,26.9c0,0.8,0.1,1.5,0.1,2.3c0.3,14.2,0.6,28.4,0.9,42.6c-0.4,11.6-0.8,23.2-1.2,34.8c-0.7,2.9-1.5,5.8-2.2,8.7
	c-2,0.4-5.4,0.3-5.9,1.4c-4.2,9.5-11,7.3-18.6,5.5c-4.3-1-9.3-0.4-13.7,0.6c-7,1.7-17.8-1.5-17.6,11.5c-0.7,0.2-1.5,0.3-2.2,0.5
	c-0.3-3.7-0.5-7.4-0.8-11.1c0.1-20.7,0.3-41.4,0.4-62.2c0.1-8.6,0.1-17.2,0.2-25.9c-0.2-2.2-0.3-4.5-0.5-6.7
	c-1.4-10.4,3.2-15.8,13.4-17.1C588.8,215.4,590.1,214,591.6,213.2z"/>
<path class="st12" d="M503.4,1056.9c1.4-1.9,2.5-4.6,4.4-5.6c34.9-17.9,72-26,110.9-20.1c22,3.3,43.6,9.8,65.2,15.6
	c15.9,4.2,26.7,14.1,27.3,31.5c0.4,10.8-0.9,21.7-1.5,32.5c-0.6,0.2-1.3,0.3-1.9,0.3c0-4.8,0-9.7,0-14.2c-7.6-0.8-13.8-0.7-19.6-2.3
	c-20.6-5.6-42.8-7-59.5-23.1c-7.3-7-16.3-9.8-26.6-7c-2.2,0.6-4.9,0.3-7.1-0.3c-5.6-1.5-11-3.8-16.7-5c-13.5-2.9-27.5-4-40.5-8.2
	c-10.1-3.3-17.9-2.7-25.7,3.8C509.2,1055.5,506.3,1056.2,503.4,1056.9z"/>
<path class="st21" d="M1217.9,370.4c10.8-3.6,21.5-7.2,34.9-11.7c-3.5,4.9-5.3,7.4-7.1,9.8c-6.2,4.7-12.5,9.2-18.3,14.3
	c-1.8,1.6-2.7,5.2-2.3,7.6c0.2,1.2,4.3,2.1,6.7,2.5c13.9,2,27.8,3.8,41.8,5.7c-0.7,3.6-1.3,7.1-2,10.7c-0.2,0.7-0.5,1.4-0.7,2.1
	c-1.2,2.1-2.5,4.1-3.7,6.2c0,0-0.2,0.2-0.2,0.2c-4,4.2-7.7,8.7-12.2,12.4c-15.6,12.6-31.4,24.9-47.1,37.3
	c-5.9-12.7-15.5-20.3-29.8-21.7c-3.4-0.4-6.6-1.9-9.9-3.1c-13.8-4.7-27.7-9.3-41.4-14.3c-2.4-0.9-5.7-3.6-5.7-5.5
	c0-2.7,2.1-6.2,4.3-7.8c2.7-2,6.6-2.6,10-3.4c19.3-4.5,38.9-8,57.9-13.7c11.4-3.5,25.8-5.3,28.4-21.4c-3-1.4-5.5-2.6-8-3.7
	C1214.9,372,1216.4,371.2,1217.9,370.4z"/>
<path class="st12" d="M768.4,1033.3c-0.7,1.4-1.3,2.8-2,4.2c-0.7-3-2-6-2-9c-0.2-53-0.2-106.1-0.2-159.1c0-0.7,0-1.4,0-2.2
	c0.7-19.2,3.6-20.8,19.8-10.9c18.8,11.6,37.6,23.2,56.4,34.9c1.3,0.8,2.1,2.6,3.1,4c-0.7,10.9-1.5,21.7-2.1,32.6
	c-0.2,4.3-0.2,8.6-0.3,12.8c-5,2.5-9.8,5.4-15,7.3c-4.5,1.6-9.5,3.1-14,2.5c-7.8-1-15.4-4.1-23.2-5.4c-15.6-2.6-20.5,1.7-20.7,17.6
	c-0.1,13.5,0.1,27.1,0.1,40.6C768.3,1013.3,768.4,1023.3,768.4,1033.3z"/>
<path class="st4" d="M628.4,804.8c0-1.2,0-2.5-0.1-3.7c9.6,3.6,19.1,7.4,28.8,10.6c13.5,4.5,27.2,8.4,40.7,12.9
	c13.8,4.6,16.3,8.1,16.4,22.4c0.1,17.5,0.1,35-0.1,52.5c0,3-1.3,6-2,9c-1.5-2.1-3-4.2-4.5-6.2c-6,4.5-11.3,8.5-16.9,12.8
	c-17.5-14.4-34.5-28.5-51.5-42.5c-0.5,0.6-0.9,1.2-1.4,1.7c-0.8-5.2-1.6-10.3-2.4-15.5c-0.3-15.2-0.6-30.3-0.7-45.5
	C634.7,808.7,634.2,804.9,628.4,804.8z"/>
<path class="st9" d="M572.2,1267.7c0-24.3,0-48.7,0-73c0.1-9.3,0.1-18.5,0.2-27.8c6.7,0.7,13.4,1.2,20,2.2c2.9,0.4,5.8,1.7,8.3,3.3
	c4.8,3.2,9,7.3,14,10.2c7.3,4.2,17.4,3.4,22.1,12.4c0,10.7,0.1,21.4,0.1,32.1c-0.6,18.6-1.3,37.1-1.9,55.7c-11.7-2.3-23.3-4.6-35-7
	c-0.8-0.2-1.6-0.4-2.4-0.6c-7.8-2-15.6-4.1-23.4-6.1c-0.3-0.7-0.8-1.1-1.6-1L572.2,1267.7z"/>
<path class="st1" d="M281.5,504.3c-3.4-3.9-6.7-7.8-12.2-14.2c-3.1,8.6-5.7,16.1-8.3,23.3c-11.5-7.3-12-6.1-21.5,5.8
	c-24.3,30.5-21.5,65.4-18.7,100.7c0.7,9.1-0.9,18.4-1.5,27.6c-0.7,10.3-0.9,20.6-2.3,30.8c-0.4,3.2-3.2,7-6,8.8
	c-5.6,3.6-12.1,5.8-18.1,8.8c-1.4,0.7-3.1,2.2-3.3,3.5c-1.7,12.9-3.5,25.9-4.5,38.9c-0.6,8.4,2.1,14.3,12.8,13.6
	c6.2-0.4,12.5,1.9,18.7,3c-4.6,0.2-9.3,0.7-13.9,0.7c-21,0.1-21.2,0.1-21.1-21.4c0.3-49.8,9.3-98.2,22.7-146
	c14.3-51,35-99.2,63.7-143.8c4-6.2,9.2-11.6,13.8-17.4c0,0,0.1,0.6,0.1,0.6c-0.1,3.2-0.1,6.4-0.2,9.6c0,3,0,6,0,8.9
	c-0.7,4.1-2.1,8.3-2,12.4C280.2,473.8,280.9,489,281.5,504.3z"/>
<path class="st22" d="M932,748.8c10.5-5.8,21.5-10.7,31.2-17.6c6.5-4.6,11.2-3.7,13.9,2.2c6.3,14,20.4,16.1,31.6,22.6
	c2.1,1.2,4.5,2,6.8,3c17,7.1,17.1,7.2,8.6,21.7c-0.1,0.5-0.4,0.9-0.9,1c-2.5,2.5-4.9,5-7.4,7.5c-2.7,2.5-5.3,5.1-8,7.6c-1,1-2,2-3,3
	c-0.2,0.7-0.7,1.1-1.3,1.2c-1.5,0.8-2.9,1.7-4.4,2.5c-2,1.5-3.9,3-5.9,4.5c-2.3,1.1-4.6,2.2-6.9,3.2c-4.1,1.8-8.2,3.7-12.4,5.5
	c-0.5-0.4-1.1-0.6-1.8-0.5c-2.4-6.4-6.8-9.8-13.8-8.9c-6.3,0.9-9.3-2.1-12.5-7.4c-6.2-10.4-16.5-13.9-27.9-10.2
	c-2.6-5.1-5.3-10.3-8-15.5c0.6-1.4,1.1-2.8,1.7-4.2c5.3-5.8,10.7-11.5,16-17.3c0.7,0.2,1.1-0.1,1.2-0.8C930,751,931,749.9,932,748.8
	z"/>
<path class="st13" d="M635.9,275.6c-0.3-14.2-0.6-28.4-0.9-42.6c0.2-0.2,0.7-0.5,0.7-0.7c-0.2-0.5-0.5-1-0.8-1.6
	c-0.7-9-1.4-18-2.2-26.9c8.6-2.2,17.2-5.8,25.9-6.5c18-1.4,36.2-1.3,54.3-1.8c-0.4,14.5-0.9,29.1-1.3,43.6
	c-6.1,5.1-5.8,10.3-0.2,15.5c0.1,0.7,0.3,1.3,0.6,1.9c-0.2,4.3-0.5,8.5-0.7,12.8c-3.8,1.5-7.6,4-11.4,4.2
	C678.6,274.6,657.2,275,635.9,275.6z"/>
<path class="st18" d="M841.1,1211.9c-0.1,22.3-0.1,44.5-0.1,66.8c-14.2,2.3-28.5,4.3-42.6,6.9c-6.6,1.2-12.9,3.3-19.4,5
	c-1.5,0.2-3,0.4-4.5,0.5c-2.3-1.3-4.6-2.6-6.9-3.9c-0.3-3.7-0.7-7.3-1-11c0.6-1.6,1.5-3.3,1.6-4.9c0.8-19.6,1.3-39.3,2.3-58.9
	c0.5-8.6,2.1-17.1,3.5-28.1c2.8,3.9,3.9,5.6,5,7.2c1.1,1.7,2.2,3.3,3.3,4.9c10.7-5,12.5-4.4,20.4,4.4c1.6,1.7,4.5,2.2,6.6,3.5
	c5.3,3.2,12.7,5.3,15.5,10c5,8.6,7.8,8.2,12.3,0.4C837.7,1213.4,839.7,1212.8,841.1,1211.9z"/>
<path class="st17" d="M841.1,1211.9c-1.4,0.9-3.4,1.5-4.2,2.8c-4.5,7.8-7.2,8.2-12.3-0.4c-2.8-4.7-10.1-6.8-15.5-10
	c-2.2-1.3-5.1-1.7-6.6-3.5c-7.9-8.9-9.7-9.4-20.4-4.4c-1.1-1.6-2.1-3.3-3.3-4.9c-1.1-1.6-2.3-3.3-5-7.2c-1.4,11-3,19.5-3.5,28.1
	c-1,19.6-1.5,39.2-2.3,58.9c-0.1,1.7-1,3.3-1.6,4.9c-0.5-3.1-1.4-6.1-1.4-9.2c0.3-47.1,0.7-94.2,1.2-141.3c0-2.1,0.4-4.2,0.6-6.4
	c9.1,1.5,19.7,0.5,27.1,5c11.1,6.6,22,10.2,34.7,12c3.4,0.5,8,2.2,12.3,2.3C841.1,1163.1,841.1,1187.5,841.1,1211.9z"/>
<path class="st20" d="M482,253.2c4.3-1.9,8.5-3.9,12.8-5.8c1.4,0.3,2.7,0.7,4.1,1c0.1,27.9,0.2,55.7,0.2,83.6
	c-4.3,2.1-8.5,4.4-12.8,6.3c-3.6,1.6-7.3,3.3-11.1,3.9c-5.1,0.8-10.3,0.5-15.4,1.1c-5.7,0.6-11.4,1.7-19.1,2.9
	c-8,13-2.5,29.8-3.8,45.8c-0.1,20.6,0,41.2-0.5,61.7c-0.1,3.1-2.7,6.1-4.1,9.2c-0.1-40.9-0.1-81.8-0.2-122.6c0.1-14.5,0.5-29,0-43.5
	c-0.3-7.7,0.5-14.5,6.8-19.8c0.3-0.4,0.6-0.6,1-0.7c4.7-2.6,9.4-5.3,14.1-7.9c0.2-0.4,0.5-0.6,0.9-0.8c7.6-4,15.2-8.1,22.8-12.1
	c0.3-0.3,0.6-0.6,1-0.7C479.9,254.3,480.9,253.7,482,253.2z"/>
<path class="st1" d="M707.7,704.2c0.8,16.2,1.7,32.5,2.4,48.7c0.2,3.5,0,7.1-0.1,10.7c-0.3,9.9-2.4,11.1-11.6,7.4
	c-2.2-0.9-4.7-1.3-7-1.9c-0.6-0.2-1.1-0.5-1.5-0.9c-0.8-0.5-1.6-0.9-2.5-1.4c-1.3-0.5-2.5-1-3.8-1.5c-0.8-0.3-1.6-0.6-2.4-1
	c-1.3-0.5-2.6-1-3.8-1.6c0,0-0.3-0.5-0.3-0.5l-0.6,0.1c-0.6-0.1-1.1-0.3-1.6-0.6c-3.7-1.2-7.5-2.4-11.2-3.6
	c-0.7-0.1-1.3-0.4-1.9-0.7c-1.5-0.5-3.1-1-4.6-1.5c-1.2-0.6-2.4-1.1-3.6-1.6c0,0-0.2-0.5-0.2-0.5l-0.5,0.1c-0.7-0.2-1.3-0.4-1.8-0.8
	c-1.4-0.5-2.9-1-4.3-1.5c-1.3-0.7-2.6-1.3-3.8-2c0,0-0.4-0.2-0.4-0.2c-1.9-1.4-3.8-2.9-5.6-4.3c-0.5-18.1-1-36.3-1.5-54.4
	c9.9-8.1,19.8-16.3,30.8-25.4c10.1,10.7,20.5,21.9,31.2,32.6C700.2,700.7,704.3,702.1,707.7,704.2z"/>
<path class="st18" d="M899.3,979.6c-0.7,8.4-1.7,16.7-2,25.1c-0.5,15.1-4,17.9-19,14.9c-5.9-1.2-11.9-1.4-18.5-2.1
	c0.7-2.3,1.3-4.4,1.9-6.5c-0.8-0.7-1.3-1.4-1.9-1.5c-13.3-1.9-14.7-10.4-14.5-22c0.5-27.7-0.4-55.4-0.8-83.1c0-2.7-0.7-5.5-1-8.2
	c17.3,8.8,34.5,17.5,51.8,26.3c1.2,0.6,2.6,1,3.9,1.5c-0.2,0.7-0.1,1.4,0.2,2c0.1,6.4,0.1,12.7,0.2,19.1c0,0.7,0,1.5,0.1,2.2
	c0,4.3,0,8.6,0,12.9c0,0.7,0,1.4,0,2.1C899.6,968.1,899.4,973.9,899.3,979.6z"/>
<path class="st13" d="M761.6,195.8c12.6,0.3,25.4-0.3,37.9,1.2c18,2,35.8,5.3,53.6,8.5c3.5,0.6,6.7,3.3,10.1,5
	c-6.8-0.7-13.7-1.5-22-2.3c0,15.7,0,31,0,46.3c-3,4.4-6.1,8.8-8.5,12.3c-7.1,0-15.3-1.9-22,0.4c-10.2,3.5-17.7,1.1-26-5.6
	c-6.5,13.1-12.1,1.2-18.5-0.6c-0.2-0.7-0.4-1.3-0.6-2c0.1-18,0.4-36,0.1-54C765.6,201.9,763,198.9,761.6,195.8z"/>
<path class="st21" d="M841.3,665.4c0,23.9,0,47.7,0,73.7c-10.3-8.7-16.7-20-30.7-18.6c-2.2,0.2-5.3-3.5-7.2-5.9
	c-8-10.5-18.4-15.8-32-15.2c-0.8,2.5-1.9,5.8-3,9c-0.6-0.1-1.3-0.2-1.9-0.1c0-12.1,0.1-24.1,0.1-36.2c0-0.8,0-1.7,0-2.5
	c0.4-10.7,0.8-21.3,1.2-32c2.4-3.3,4.7-6.5,6.4-8.9c11,6,22.6,11.3,33,18.3c9.1,6.1,20.9,7.7,27.8,17.4
	C836,665.5,839.2,665.1,841.3,665.4z"/>
<path class="st22" d="M1112.2,849.5c-0.9-3.1-0.7-7.9-2.7-9.2c-11.4-7-22.8-15-35.3-19c-12.4-4-16.3-10.9-15.6-22.5
	c7.6-2.9,15.1-5.8,22.7-8.7c1.8-0.7,3.6-1.3,5.3-2c1.2-0.5,2.4-0.9,3.6-1.4c0.9-0.3,1.7-0.5,2.6-0.8c2.8-1,5.6-2.1,8.4-3.1
	c1.1-0.5,2.3-1.1,3.4-1.6c11.6-5.4,23.1-10.9,36.5-17.2c8.7,9,19.3,19.9,30,30.9c-0.1,0.7-0.4,1.3-0.9,1.7c-0.4,0.6-0.8,1.1-1.2,1.7
	c-10.4,10.9-20.4,22.2-31.4,32.4C1129.8,837.9,1120.7,843.3,1112.2,849.5z"/>
<path class="st16" d="M841.1,254.4c0-15.3,0-30.6,0-46.3c8.3,0.9,15.2,1.6,22,2.3c1.3,0.4,2.6,0.9,4,1.3c2.1,0.6,4.3,1.3,6.4,1.9
	c9.2,3,18.4,6,27.7,8.9c0.1,5.6,0.3,11.2,0.4,16.8c-0.1,18.7-0.2,37.4-0.4,56.1c-6.2-0.1-13.2,1.6-18.5-0.7
	c-13.7-5.8-26.5-2.9-39.6,0.6C842.4,281.8,841.8,268.1,841.1,254.4z"/>
<path class="st23" d="M279.8,917.1c0,39.4,0,78.8,0.1,118.2c0,3.2,1.5,6.5,1,9.4c-0.4,2.2-3,3.9-4.7,5.9
	c-10.5-17.6-21.1-35.3-31.6-52.9c-1-1.7-2-3.4-3-5.1c-0.5-1.1-0.9-2.2-1.4-3.3c-1.5-4.6-2.6-9.4-4.6-13.8
	c-6.8-14.9-15.3-29.4-5.6-46.2c16.4-5.4,33-10.8,49.6-16.3C279.7,914.3,279.7,915.7,279.8,917.1z"/>
<path class="st24" d="M635.4,858.9c0.8,5.2,1.6,10.3,2.4,15.5c0.5-0.6,0.9-1.2,1.4-1.7c17,14,34,28.1,51.5,42.5
	c5.6-4.3,10.9-8.3,16.9-12.8c1.5,2,3,4.1,4.5,6.2c-0.2,13.7-0.4,27.4-0.7,41.1c-2.5,4-4.7,11.1-7.5,11.3c-10.7,1-22,1.4-32.3-1.2
	c-10.5-2.7-20.1-9.1-30.2-13.9c-1.8,2.2-3.7,4.7-5.7,7.2c-0.3-2.7-0.5-5.4-0.8-8C635.1,916.4,635.2,887.6,635.4,858.9z"/>
<path class="st13" d="M766.4,551.3c-0.7-1.5-2.1-3.1-2.1-4.6c0.9-36.6,1.9-73.3,2.9-109.9c4.5-0.8,8.9-1.5,13.4-2.4
	c20.2-3.9,40.3-7.9,60.5-11.9c0,0,0.1,0,0.1,0c-0.1,22.1-0.2,44.2-0.3,66.3c-1.1,0.8-3.1,1.4-3.2,2.4c-1.5,10.5-7.5,10-14.5,5.9
	c-7.6-4.6-14.9-9.6-22-14.8c-6.6-4.9-16.3-1.5-22-10.4c-3.5-5.4-8.3-1-8.7,4.8c-0.9,12.7-1.4,25.5-2,38.3
	C767.7,527.1,767,539.2,766.4,551.3z"/>
<path class="st0" d="M572.3,772.8c0,9.3,0.1,18.6-0.2,27.9c-0.1,2.1-1.3,5.4-2.8,6c-1.7,0.6-4.7-0.7-6.5-2
	c-14.9-10.4-31-17.1-48.8-21.5c-21.6-5.3-42.7-12.5-60-28.3c-4.3-4-13.9-3-21-3c-10.9,0-21.9,0.6-32.8,2c-8.1,1-16.2,2.7-23.8,5.5
	c-14.3,5.3-28.1,11.7-42.3,17.5c-2.9,1.2-6.1,1.6-9.2,2.3c11.3-6.2,22.2-13.8,34.1-18.4c36.4-14.1,74.3-20.5,113.4-17.7
	c14.3,1,28.7,3.3,42.6,6.6c15.2,3.7,30.2,8.9,44.9,14.2C564.5,765.5,568.2,769.8,572.3,772.8z"/>
<path class="st18" d="M634.9,1282.7c0.6-18.6,1.3-37.1,1.9-55.7c2.7-0.6,5.6-2.1,8.2-1.7c13.7,2.3,27.4,5,41.1,7.8
	c10,2,20.8-3.1,21.8-10.5l1,0l1-0.1c-0.2,22.4-0.5,44.7-0.7,67.1c-4.6,0.5-9.2,0.9-13.9,1.4c-5.3-0.5-10.6-1-16-1.5
	c-1.9-0.2-3.8-0.3-5.7-0.5c-4.5-0.6-9-1.2-13.5-1.7c-1.3-0.1-2.5-0.2-3.8-0.4c-1.8-0.3-3.5-0.7-5.3-1c-4.2-0.8-8.4-1.5-12.6-2.3
	C637.4,1283.3,636.1,1283,634.9,1282.7z"/>
<path class="st9" d="M426.1,1147.2c6.5,2.1,13.1,4.3,20.2,6.6c4.1,14.9,4.2,15.2,20.6,14.9c7.1-0.1,12.2,1.5,16.4,7.7
	c2.7,3.9,7.3,6.5,10.8,10c1.3,1.3,2.7,3.4,2.8,5.1c0.9,13.9,1.6,27.7,2,41.6c0.1,1.8-1.7,3.7-2.6,5.6c-27.2-10.2-52-24.5-73.5-44.1
	c-8.3-7.5-5.4-16.8-2.9-25.8c0.2-1.3,0.3-2.5,0.5-3.8c0.4-1.6,0.8-3.2,1.2-4.8c1.3-3.8,2.6-7.6,3.9-11.4
	C425.3,1148.1,425.5,1147.6,426.1,1147.2z"/>
<path class="st7" d="M503.4,1056.9c2.9-0.7,5.8-1.4,8.7-2.1c8,3.6,15.7,8,24,10.6c7.5,2.3,15.6,2.4,23.4,3.7c2.7,0.4,5.3,1.8,8,2.1
	c25.8,3,52.1,4.8,71.1,26.3c0.9,1,2.4,1.6,3.7,2c16.6,4.5,33.1,9.4,49.9,13.2c4.8,1.1,10.3-0.9,15.5-1.6c0.7,0,1.3,0,1.9-0.3
	c-0.1,7.9-0.3,15.8-0.4,23.7c-16.6-1.7-32.5-5.5-48.7-9.8c-15.7-4.1-24.8-17.3-39.2-21.5c-17.1-5-33.7-10.9-52-13.3
	c-14.7-1.9-31.6-1.3-45.5-12.1c-6.3-4.9-17.3-3.8-26.1-5.8c-3.2-0.7-6.1-2.8-9.1-4.2c-0.1-0.6-0.2-1.3-0.3-1.9
	c2.2-1.5,4.4-3,6.6-4.5c2.1-1.2,4.3-2.4,6.4-3.6C502.1,1057.4,502.7,1057.1,503.4,1056.9z"/>
<path class="st11" d="M279.7,824.7c0,1.4,0,2.8,0,4.2c-1,10.4-2.1,20.8-3,31.1c0,0.2,1.8,0.6,2.8,1c0,1.5,0.1,3,0.1,4.5
	c-2.9,2.8-5.7,5.8-8.7,8.4c-8.9,7.9-17.8,15.9-26.9,23.6c-10.6,9-21.3,17.7-32,26.6c-3.8-10.6-8.1-21.1-11.3-31.8
	c-3.2-10.9-5.3-22-7.9-33.1c-0.6-5.8-1.2-11.6-1.8-17.4c4.7,3.3,9,7.3,14.1,9.9c10,5.1,20.5,9.5,32.5,15
	c4.9-8.3,11.7-16.8,15.4-26.6c6.3-16.6,2.3-15.7,23.5-15.6C277.5,824.6,278.6,824.7,279.7,824.7z"/>
<path class="st21" d="M733.7,392.2c-7.8,3.5-15.6,7-23.3,10.4c0-1.3-0.1-2.7-0.1-4c0.4-1.4,0.8-2.9,1.2-4.3c0-20.2,0-40.3-0.1-60.5
	c0.2-4.2,0.5-8.5,0.7-12.7c2.7,2.1,5.1,5.8,8.1,6.2c15.1,2,30.3,3.3,45.4,4.8c0.3,19.3,0.6,38.5,0.8,57.8c-0.3,4.5-0.5,9.1-0.8,13.6
	c-1.1-0.3-2.2-0.6-3.4-0.9c-0.8-0.8-1.6-1.6-2.4-2.3c-0.7-0.6-1.4-1.2-2.1-1.7c-0.7-0.3-1.4-0.6-2-0.9c-1.3-0.6-2.6-1.2-3.9-1.9
	c-1-0.6-1.9-1.2-2.9-1.8c-0.7-0.5-1.5-1-2.2-1.5C742.3,392.4,738,392.3,733.7,392.2z"/>
<path class="st16" d="M841.5,609.6c-0.1,10-0.2,19.9-0.3,29.9c-7-3.5-14.1-6.6-20.8-10.6c-9.1-5.4-21.3-9.4-25.9-17.5
	c-6.8-12-16.6-11-26.5-12.9c-0.2-13.5-0.4-27-0.6-40.5c2.6-0.8,5.5-1.2,7.9-2.5c2.9-1.6,5.5-3.9,8.2-5.9c1.4,3.7,2.9,7.3,4.2,11
	c0.6,1.6,0.8,3.3,1.6,6.1c14.9-5,22.9,5.3,30.9,14.1c6.4,7,11.6,13.6,21,4.7C841.1,593.6,841.3,601.6,841.5,609.6z"/>
<path class="st25" d="M1294.7,327.8c-14.8-0.1-29.5,0.2-44.3-0.3c-17.8-0.6-36.2,1.8-52.5-8c-3.3-2-5.3-6-7.9-9
	c3.5-1.5,7-3.1,10.6-4.6c5-1.5,10.4-2.3,15.1-4.6c13.8-6.8,29-11.9,36.4-27.2c2.3,3.7,4.7,7.4,7.8,12.5c11.4-1.8,24.9-5.2,35.2,6.7
	c0.4,2.8,0.9,5.6,1.3,8.5c0.1,5.1,0.1,10.2,0.2,15.3C1295.9,320.6,1295.3,324.2,1294.7,327.8z"/>
<path class="st15" d="M910.1,774.4c2.7,5.2,5.4,10.4,8,15.5c11.3-3.6,21.7-0.2,27.9,10.2c3.1,5.2,6.2,8.2,12.5,7.4
	c7-1,11.4,2.5,13.8,8.9c0,0.4,0.3,0.7,0.7,0.9c-24.4,11.1-49.5,20-76.4,23.2c-17.2,2.1-20.2-0.5-13.3-16.7
	c7.2-16.9,16.8-32.8,25.4-49.2c0,0,0.8,0.2,0.8,0.2L910.1,774.4z"/>
<path class="st25" d="M841,585.7c-9.4,8.9-14.6,2.2-21-4.7c-8-8.7-16-19.1-30.9-14.1c-0.7-2.8-1-4.5-1.6-6.1
	c-1.3-3.7-2.8-7.4-4.2-11c-2.7,2-5.3,4.3-8.2,5.9c-2.4,1.3-5.2,1.7-7.9,2.5c-0.3-2.3-0.6-4.5-0.9-6.8c0.7-12.1,1.3-24.2,2-36.3
	c4.6-2.3,9.1-4.7,13.9-7.2c1.4,1.3,4.8,6.6,8,6.5c10.8-0.2,16.3,4.6,19.1,14.4c0.4,1.4,2.9,2.6,4.7,3.2c6.2,2.1,12.5,4,19.9,6.3
	c1.1-0.6,4.2-2.3,7.3-4C841.1,551.3,841.1,568.5,841,585.7z"/>
<path class="st26" d="M348.5,346.1c1.5-1.3,3.1-2.5,4.6-3.8c1.4,2.1,2.9,4.3,4.3,6.4c0.6,22.6,1.3,45.2,1.7,67.7
	c0.1,3.3-1.2,6.7-1.8,10c-1.8-3.4-3.5-6.9-6.2-12.1c-2,4.5-3.1,6.9-3.6,8c-14-1.4-28.8-7.2-39.3-2.7c-8.7,3.7-15.7,10.1-26.2,7.8
	c0,0-0.1-0.6-0.1-0.6c2.1-3.9,3.6-8.4,6.4-11.7c13.4-15.9,27.1-31.6,40.8-47.3c0.5-0.6,1-1.2,1.5-1.8c5.7-6.4,11.4-12.8,17.1-19.2
	C348.2,346.9,348.5,346.6,348.5,346.1z"/>
<path class="st27" d="M901.7,566.3c1.3,2.9,3.2,5.6,3.9,8.6c1,3.9,1.1,8,1.5,12c10.6-1,20.7-4.1,23,10c0.2,1.3,2.2,2.6,3.7,3.4
	c21.7,12.3,43.6,24.4,65.2,36.8c5.1,2.9,9.5,7.1,14.2,10.6c-10.7,3-21.5,5.9-32.2,8.9c-5.7-3.5-11.1-7.9-17.3-10.3
	c-22.5-8.6-43.9-19-62.2-34.9c-0.1-4.3-0.2-8.5-0.4-12.8c-0.1-5.8-0.2-11.7-0.3-17.5c0-1.3,0-2.6-0.1-3.9
	C901.2,573.7,901.5,570,901.7,566.3z"/>
<path class="st24" d="M276.5,824.6c-21.2-0.1-17.2-1-23.5,15.6c-3.7,9.7-10.5,18.3-15.4,26.6c-12-5.5-22.4-9.9-32.5-15
	c-5-2.6-9.4-6.5-14.1-9.9c-0.7,0-1.4,0.1-2.1,0c-0.1-1.4-0.2-2.7-0.3-4.1c-0.5-5.6-0.8-11.2-1.6-16.8c-0.9-6.6,0.9-10,8.4-9.6
	c21.3,1,42.6,1.7,63.9,2.3c6.8,0.2,13.6,0,20.4,0c-0.6,2.3-1.3,4.5-1.9,6.8C277.4,821.9,276.9,823.2,276.5,824.6z"/>
<path class="st3" d="M499,635.5c-0.6,7-1.9,13.9-1.8,20.9c0.2,12,1.3,23.9,2.1,35.8c-2.3-0.3-4.5-0.6-6.8-0.9
	c-1.2-0.1-2.4-0.1-3.7-0.2c-2.3-0.1-4.7-0.1-7-0.2c-2.9-1.3-5.7-3.6-8.6-3.8c-10.4-0.5-20.8-0.4-31.1-0.2c-5.5,0.1-7.8-1.9-7.6-7.5
	c0.3-8.5,0.1-17,0.1-25.5c1.1,0.6,2.2,1.2,3.2,1.8c4.4-4.7,9.3-9,13.1-14.1c8-10.5,20-7.9,28.6-5.3C487.2,638.5,492.6,637,499,635.5
	z"/>
<path class="st0" d="M1293.5,235.2c0-12.5,0-25.1,0-37.6c-0.6-0.3-1.2-0.6-1.8-0.9c-2.3,5.3-4.6,10.7-6.9,16
	c-0.8,0.2-1.7,0.4-2.5,0.5c-1.9-6.4-3.8-12.7-5.6-19c-6.3-0.7-13.2-1.8-20.1-2c-6.8-0.2-13.7-2-19.3,5.7c-1.7,2.3-12.2,1.4-16.1-1.5
	c-16.5-12.6-33.8-3.5-50.6-2.9c-10.7,0.4-21.5,4.1-31.9,7.4c-7,2.2-13.4,6.3-20.2,9.3c-4.8,2.1-9.9,3.6-14.8,5.3
	c15.9-13.9,34.9-20.7,55.2-24.8c2.6-0.5,4.9-2.2,7.5-2.5c7.3-0.8,14.6-0.9,21.9-1.9c11.5-1.7,22.8-4.3,34.2-5.9
	c8.4-1.2,17.1-0.8,25.4-2.5c17.8-3.7,35.4-8.4,53.1-12.3c2.6-0.6,7.1,0,8.2,1.6c1.6,2.4,2.1,6.8,1,9.6c-3.6,9.1-9.4,17.5-12.1,26.8
	c-2,7.1-0.2,15.3-0.9,22.9C1297,229.5,1294.8,232.3,1293.5,235.2z"/>
<path class="st27" d="M357.5,348.8c-1.4-2.1-2.9-4.3-4.3-6.4c12.4-11.1,24.1-23.2,37.3-33.2c15.5-11.7,32.4-21.5,48.6-32.1
	c-6.3,5.2-7.1,12-6.8,19.8c0.5,14.5,0,29,0,43.5c-3.4,5.6-6.8,11.2-10.5,17.4c-1.8-1.5-4.4-2.5-4.8-4.2
	c-3.5-13.6-17.8-11.5-25.5-13.3C381.3,337.9,368.9,345.5,357.5,348.8z"/>
<path class="st17" d="M708,1222.6c-1,7.4-11.8,12.5-21.8,10.5c-13.7-2.7-27.4-5.4-41.1-7.8c-2.6-0.4-5.5,1.1-8.2,1.7
	c0-10.7-0.1-21.4-0.1-32.1c0.1-3,0.2-6,0.3-8.9c9.6,0,19.1,0.4,28.7,0c10.3-0.5,19.7,0.4,26.8,9.2c5.7,7,11.5-1.1,17.3-0.5
	c0.1,8.7,0.2,17.4,0.3,26.1C709.4,1221.4,708.7,1222,708,1222.6z"/>
<path class="st16" d="M761.6,195.8c1.4,3,4.1,6,4.1,9.1c0.3,18,0,36-0.1,54c-3.3-3-6.1-7.3-10-8.7c-15.4-5.5-29.9-1.8-43.4,6.4
	c-0.3-0.6-0.5-1.2-0.6-1.9c0.1-5.2,0.1-10.3,0.2-15.5c0.4-14.5,0.9-29.1,1.3-43.6c1.9-0.2,3.9-0.3,5.8-0.5c13,0.2,26,0.4,39.1,0.6
	C759,195.7,760.3,195.8,761.6,195.8z"/>
<path class="st16" d="M765.6,403.5c0.3-4.5,0.5-9.1,0.8-13.6c10.5,10,16.6-0.3,21.4-3.3c3.1,3.1,6.5,5.8,10.4,7.2
	c11.2,4.2,29.2-1.5,37-11.2c1.7-2.1,3.9-3.7,5.9-5.5c-0.1,15.2-0.1,30.3-0.2,45.5c-20.2,4-40.3,7.9-60.5,11.9
	c-4.5,0.9-8.9,1.6-13.4,2.4c-0.2-5.5-0.3-11-0.5-16.5c-0.2-3.6-0.3-7.2-0.5-10.7c-0.3-0.7-0.6-1.4-0.9-2.1
	C765.4,406.1,765.5,404.8,765.6,403.5z"/>
<path class="st18" d="M1202.5,955.8c0.6-26.4,1.1-52.9,1.7-79.3c0.9-0.1,1.8-0.1,2.7-0.2l0.1,0.1c0,11.4-0.1,22.8,0.1,34.2
	c0,2.7,0.3,7,1.8,7.8c12,5.6,21.1,17.6,36.2,16c-4.2,11.7-7.3,23.8-12.8,34.9c-9.2,18.7-19.8,36.7-29.8,55.1
	c-0.7-8-1.9-16.1-1.8-24.1C1200.9,985.4,1201.9,970.6,1202.5,955.8z"/>
<path class="st20" d="M1207.7,467.6c15.7-12.4,31.5-24.7,47.1-37.3c4.5-3.6,8.2-8.2,12.2-12.4c-7.3,9.3-13.8,19.5-22.2,27.8
	c-7.8,7.7-17.2,13.8-26.4,19.9c-7.7,5-7.6,10.4-2.7,16.9c0.5,1.1,1,2.2,1.6,3.3c0.2,1,0.4,2.1,0.5,3.1c0.6,1,1.2,2.1,1.8,3.1
	c-0.2,0.5,0,0.9,0.5,1.2c1.2,1.8,2.4,3.6,3.6,5.5c-0.2,0.5-0.1,0.8,0.4,1c0.6,1,1.2,2.1,1.9,3.1c-0.3,0.5-0.1,0.9,0.4,1.2
	c0.6,0.9,1.3,1.8,1.9,2.8c0,0.7,0.3,1.2,0.9,1.6c0.5,0.7,1,1.4,1.4,2.1c3.8,7.9,7.7,15.8,11.5,23.7c0.4,0.8,0.9,1.6,1.3,2.4
	c-0.1,0.7,0.1,1.3,0.6,1.9c0.5,0.9,1,1.9,1.5,2.8c0.3,1.2,0.5,2.5,0.8,3.7c0.4,1,0.9,1.9,1.3,2.9c0.3,1.2,0.6,2.4,0.8,3.6
	c0.4,1,0.8,2.1,1.3,3.1c1.7,5.4,3.4,10.8,5.1,16.3c0.4,1,0.9,2.1,1.3,3.1c0.2,1.1,0.4,2.2,0.6,3.3c0.5,1.7,1.1,3.4,1.6,5.1
	c1.9,7,3.8,13.9,5.7,20.9c0.3,0.8,0.7,1.5,1,2.3c-0.2,0.7,0,1.4,0.4,1.9c1.2,4.4,2.5,8.9,3.7,13.3c0.2,2,0.4,4,0.7,6.1
	c0.5,4.3,0.9,8.6,1.4,12.9c-6.2,1.1-12.5,2.1-18.7,3.2c-2.6-4.3-5.2-8.5-7.8-12.8c0.4-0.4,0.8-0.8,1.2-1.2c5.2,3.5,10.3,7,15.5,10.5
	c1.2-0.5,2.3-1,3.5-1.5c-0.6-7.1-0.5-14.3-1.8-21.2c-2.9-16.2-12.7-29.2-20.9-43c-0.7-1.2-1.9-2.5-2-3.8
	c-0.6-17.2-12.4-21.3-26.4-23c-0.6-18.9-0.9-37.9-2-56.8C1211.4,482.5,1209.1,475.1,1207.7,467.6z M1245.3,566.3
	c-0.2-0.2-0.4-0.5-0.5-0.7c-0.2,0.2-0.4,0.4-0.6,0.6c0.3,0.3,0.6,0.6,0.9,0.9C1245.1,566.8,1245.2,566.6,1245.3,566.3z"/>
<path class="st11" d="M635.7,953.2c2-2.5,3.9-5,5.7-7.2c10.1,4.8,19.6,11.2,30.2,13.9c10.3,2.6,21.6,2.2,32.3,1.2
	c2.8-0.3,5-7.4,7.5-11.3c0,6.4,0,12.9,0,19.3c-0.4,6.4-0.8,12.9-1.2,19.3c0.2,14.2-2,14.9-15.2,10.1c-16.7-6.1-34-10.5-51.1-15.7
	c-3.7-1.1-7.4-2.5-11.1-3.8c0.6-3.4,1.2-6.7,1.8-10.1c0-2.1,0-4.3,0-6.4C635,959.3,635.3,956.2,635.7,953.2z"/>
<path class="st5" d="M1230.3,809.3c15.2-24.9,30.5-49.9,45.7-74.8c1.3,0.3,2.7,0.7,4,1c0.7,35.7-2.7,71.2-10.7,106.3
	c-1.1-5.4-2.2-10.8-2.8-13.5c-9.8-3.8-18-6.5-25.8-10.3C1236.8,816.1,1233.8,812.2,1230.3,809.3z"/>
<path class="st26" d="M267.2,297.7c0.5-0.9,1.1-1.8,1.6-2.6c3.6-6.5,7.2-13,11.3-20.5c3.9,6.7,7.2,12.4,10.5,18.1
	c0,0,0.4,0.7,0.4,0.7c0.6,1.1,1.2,2.3,1.8,3.4c0,0,0.4,0.6,0.4,0.6c1.2,1.4,2.4,2.8,3.7,4.2c0,0,0.2,0.2,0.2,0.2
	c0.7,0.5,1.3,1.1,2,1.6c0,0,0.6,0.5,0.6,0.5c0.5,0.4,1,0.9,1.6,1.3c0,0,0.8,0.7,0.8,0.7c1.1,0.9,2.2,1.8,3.3,2.7
	c0.9,0.6,1.8,1.1,2.6,1.7c2.1,1.1,4.3,2.3,6.4,3.4c0.7,0.3,1.4,0.6,2.1,0.9c-2.8,3.7-5.7,7.4-8.5,11.1c0,0-0.4,0.2-0.4,0.2
	c-1.1,0.7-2.3,1.4-3.4,2.1c0,0-0.8,0.6-0.8,0.6c-0.6,0.4-1.1,0.9-1.7,1.3c0,0-0.5,0.4-0.5,0.4c-0.6,0.6-1.3,1.1-1.9,1.7
	c0,0-0.2,0.2-0.2,0.2c-0.6,0.6-1.3,1.3-1.9,1.9c0,0-0.2,0.2-0.2,0.2c-0.6,0.6-1.3,1.3-1.9,1.9c0,0-0.2,0.3-0.2,0.3
	c-0.5,0.6-1.1,1.3-1.6,1.9c0,0-0.4,0.6-0.4,0.6c-0.4,0.5-0.7,1.1-1.1,1.6c-0.4,0.7-0.8,1.4-1.2,2c-0.5,0.8-0.9,1.6-1.4,2.3
	c-0.2,0.7-0.4,1.5-0.6,2.2c-0.5,1.3-1,2.7-1.6,4c0,0-0.4,0.9-0.4,0.9c-0.6,1.2-1.2,2.4-1.8,3.6c-0.4,0.6-0.7,1.3-0.7,2
	c-2.2,0.2-4.4,0.3-6.7,0.5c-0.8-2.2-1.7-4.4-2.5-6.6c-1.2-2.3-2.5-4.6-3.7-6.9c-0.1-0.7-0.4-1.2-1-1.6c-1.2-2-2.4-4.1-3.6-6.1
	c0,0-0.4-0.8-0.4-0.8c-0.5-0.6-1-1.2-1.5-1.7c0,0-0.4-0.4-0.4-0.4c-0.6-0.5-1.2-1.1-1.8-1.6c0,0-0.5-0.5-0.5-0.5
	c-0.5-0.5-1.1-0.9-1.6-1.4c0,0-0.8-0.6-0.8-0.6c-2-1.4-3.9-2.7-5.9-4.1c-0.4-0.5-0.9-0.7-1.5-0.7c-5.3-3.5-10.5-7.1-15.7-10.6
	c0,0,0.4-0.2,0.4-0.2c3.7-1.2,7.5-2.5,11.2-3.7c0.6,0,1.1-0.1,1.5-0.6c2.3-1.2,4.6-2.4,6.9-3.6c0,0,0,0,0,0c2.8-2.2,5.6-4.5,8.4-6.7
	c0,0,0,0,0,0C265.6,299.1,266.4,298.4,267.2,297.7z"/>
<path class="st2" d="M212.1,924.2c10.7-8.9,21.4-17.6,32-26.6c9.1-7.7,18-15.7,26.9-23.6c3-2.7,5.8-5.6,8.7-8.4
	c0.3,7.7,0.7,15.4,1,23.1c-0.4,8.1-0.7,16.2-1.1,24.2c-16.6,5.4-33.2,10.9-49.6,16.3c-9.7,16.8-1.1,31.3,5.6,46.2
	c2,4.4,3.1,9.2,4.6,13.8C230.9,967.5,221.5,945.9,212.1,924.2z"/>
<path class="st27" d="M976.7,145.9c26.1-3.5,39.3-20,43.8-45.3c0.9,0.6,1.8,1.1,2.7,1.7c4.7,9.9,7.6,21.5,14.7,29.1
	c7.2,7.8,18.7,11.7,31.8,19.3c-27.4,5.6-40.2,22.6-44.6,47.2c-1.1-0.4-2.2-0.9-3.2-1.3c-5.1-10.2-8.4-22.1-15.9-30.1
	c-7.4-8-19.1-12-28.9-17.7C976.9,147.7,976.8,146.8,976.7,145.9z M1047.8,146.8c-12.7,1.2-25.5,4.7-38.7-5c-2.2,4.1-6.7,9-5.7,11.1
	c6.1,12,13.5,23.4,20.2,34.6c3.1-14.6,10.4-27.5,24.7-35.7C1049,151.5,1048.1,148.6,1047.8,146.8c0.4-0.2,0.7-0.6,1-0.9
	C1048.4,146.3,1048.1,146.5,1047.8,146.8z"/>
<path class="st28" d="M767.9,598.6c9.9,1.9,19.7,0.9,26.5,12.9c4.6,8.1,16.8,12.1,25.9,17.5c6.7,3.9,13.9,7.1,20.8,10.6
	c0,8.6,0.1,17.3,0.1,25.9c-2.1-0.3-5.2,0.1-6.1-1.1c-6.9-9.7-18.8-11.3-27.8-17.4c-10.4-7-22-12.3-33-18.3c-1.7,2.3-4.1,5.6-6.4,8.9
	C767.9,624.6,767.9,611.6,767.9,598.6z"/>
<path class="st7" d="M158.9,419.4c20.2-3.4,32.2-15.3,38.2-35.5c5.6,19.9,19.9,30,38.2,36c-0.3,1-0.7,1.9-1,2.9
	c-3,1.5-6.2,2.7-8.9,4.7c-7,5-14.7,9.6-20.5,15.8c-7.5,8-8.9,7.8-15.3-0.5c-5-6.4-12.5-11.1-19.3-15.9c-3-2.1-7-2.7-10.5-3.9
	C159.5,421.9,159.2,420.7,158.9,419.4z"/>
<path class="st17" d="M1245.2,934.4c-15.1,1.6-24.3-10.4-36.2-16c-1.5-0.7-1.8-5.1-1.8-7.8c-0.2-11.4-0.1-22.8-0.1-34.2
	c3.5,0.4,7.3,0,10.4,1.2c13.1,5,26,10.6,39,15.9c0.5,0.7,1,1.3,1.5,2c-0.3,1.5-0.6,2.9-1,4.4c-0.6,1.8-1.2,3.6-1.8,5.5
	c-1.7,5.4-3.3,10.7-5,16.1c-0.5,1.8-1.1,3.5-1.6,5.3c-0.5,0.5-1,1-1.5,1.5c-0.3,0.7-0.6,1.4-0.9,2.1
	C1245.9,931.7,1245.5,933,1245.2,934.4z"/>
<path class="st16" d="M886.7,718.4c1-2,1.4-4.8,3-6c9.4-6.6,12.9-15.1,12.1-26.7c-0.9-15.3-0.4-30.7-0.5-46.1
	c1.7,0.4,3.4,1.2,5.1,1.2c19.2,0,29.6,17.6,46.1,23.2c1.4,0.5,1.9,3.5,2.8,5.4c-22.4,10.5-42.2,24.5-59.6,42
	C893,714.1,889.7,716.1,886.7,718.4z"/>
<path class="st7" d="M1230.3,809.3c3.5,3,6.5,6.8,10.5,8.7c7.8,3.8,16,6.5,25.8,10.3c0.6,2.7,1.7,8.1,2.8,13.5
	c-1,5.1-1.9,10.3-2.9,15.4c-22.9,8.5-39.6-4.4-55.9-18.5c-3.1,6.6-5.2,11.3-7.4,16c0.6-5.6,1.3-11.1,1.9-16.7
	c0.5-0.8,0.9-1.6,1.4-2.4c0.4-0.2,0.7-0.6,0.9-1c0.3-0.4,0.6-0.8,1-1.1c0.5-0.2,0.9-0.6,1.1-1.1c0.3-0.4,0.6-0.7,1-1
	c0.6-0.2,1-0.7,1.2-1.3c0.3-0.3,0.5-0.6,0.9-0.9c0.4-0.5,0.8-1.1,1.3-1.6c3.1-3.9,6.2-7.7,9.3-11.6c0.4-0.1,0.8-0.3,1.1-0.7
	C1226.1,813.2,1228.2,811.3,1230.3,809.3z"/>
<path class="st27" d="M1295,293.2c-10.4-11.8-23.9-8.4-35.2-6.7c-3.2-5.1-5.5-8.8-7.8-12.5c-5.6,0.6-11.3,1.3-16.9,1.9
	c-1.5,0.6-3,1.2-4.4,1.8c-5,0.3-10,0.6-15,0.9c-1.6-1.6-3.2-3.3-4.8-4.9c0.2-1.4,0.5-2.7,0.7-4.1c4.8-5.2,9.7-10.4,14.5-15.6
	c5.3,1.3,10.7,3.7,16,3.7c17,0.1,33.9-0.7,50.9-1.1c1,10.7,2,21.3,3,32C1295.7,290.2,1295.3,291.7,1295,293.2z"/>
<path class="st8" d="M1203.1,854.7c2.2-4.7,4.3-9.3,7.4-16c16.3,14.1,33,27,55.9,18.5c-0.3,2.1-0.7,4.1-1,6.2
	c-0.1,0.7-0.2,1.4-0.3,2.1c-0.2,1.4-0.5,2.9-0.7,4.3c-0.7,2.1-1.4,4.1-2,6.2c-0.2,1.5-0.5,3.1-0.7,4.6c-0.4,1.4-0.7,2.8-1.1,4.2
	c-0.7,2.9-1.4,5.8-2.1,8.8c-0.6,0-1.3,0-1.9,0c-13-5.3-25.9-10.9-39-15.9c-3.2-1.2-6.9-0.8-10.4-1.2c0,0-0.1-0.1-0.1-0.1
	c-0.8-5.7-1.5-11.4-2.3-17.1C1204.1,857.7,1203.6,856.2,1203.1,854.7z"/>
<path class="st0" d="M1310.6,449.3c2.7,5.1,4.7,7.8,5.6,10.8c3.5,11.1,10.3,18.3,22.1,20.8c2.3,0.5,4.1,3.3,6.1,5.1
	c-2.3,1.8-4.3,4.2-6.9,5.2c-8.8,3.2-17.6,5.6-19.9,16.8c-0.6,2.7-4.7,6.2-7.4,6.3c-2.4,0.1-5.2-3.6-7.5-6.1c-3.8-4.2-7.3-8.7-11-13
	c-5.8-6.6-6.9-12.5,0.4-19.4c4.7-4.5,7.7-10.8,11.5-16.2C1305.5,456.7,1307.4,453.9,1310.6,449.3z"/>
<path class="st25" d="M955.2,669.4c-0.9-1.8-1.4-4.9-2.8-5.4c-16.5-5.6-26.9-23.2-46.1-23.2c-1.7,0-3.4-0.8-5.1-1.2
	c-0.2-4.2-0.5-8.4-0.7-12.6c0.4-5.2,0.7-10.3,1.1-15.5c18.3,15.9,39.7,26.2,62.2,34.9c6.2,2.4,11.5,6.8,17.3,10.3
	C972.5,661,963.9,665.2,955.2,669.4z"/>
<path class="st13" d="M901.6,239.4c-0.1-5.6-0.3-11.2-0.4-16.8c22.3,0.7,41.8,10.8,61.7,19.1c7.4,3.1,13.9,8.2,20.8,12.4
	c-0.3,0.3-0.5,0.6-0.8,0.9c-1.4-0.2-2.8-0.4-4.2-0.6c-6.5-0.6-14.7,1.2-19.1-2.1c-13.5-10.1-26.9,3.3-40-1.6
	c-0.8-0.3-2.8,2.6-4.2,4.2c-1.7,1.9-3.3,4-7.1,8.6c-1.1-7-1.4-11-2.5-14.7C904.8,245.5,903,242.5,901.6,239.4z"/>
<path class="st13" d="M498.8,248.4c-1.4-0.3-2.7-0.7-4.1-1c6.1-3.4,11.8-7.7,18.3-10c24.5-8.8,49.2-16.9,73.8-25.2
	c1.3-0.4,3.2,0.6,4.8,1c-1.5,0.8-2.8,2.2-4.4,2.4c-10.2,1.3-14.9,6.7-13.4,17.1c-13.2,0-0.8,13.2-8.3,16.3
	c-1.7-3.2-3.4-6.2-5.8-10.7c-2.9,4.9-4.8,8-6.6,11.1c0.2-1.1,0.4-2.2,0.6-3.3c-5.9-2.9-11.7-8.3-17.6-8.3c-9.2,0-19.9,1.2-21.6,14.8
	C508.8,251.1,503.8,249.7,498.8,248.4z"/>
<path class="st13" d="M983.6,254.1c14.4,8,29.8,14.9,43.1,24.4c16.1,11.6,15.1,12.4,24.8-4.4c4.4-7.7,10.4-14.6,15.6-21.8
	c0,0,0.4,0.3,0.4,0.3c-2.1,4.7-4.1,9.4-6.2,14.2c-3.2,7.2-6.3,14.5-9.4,21.7c-2.6,2.1-5.2,4.3-7.8,6.4l-0.5,0.3
	c-0.7-0.6-1.4-1.3-2.1-1.9c-1.2-0.2-2.5-0.3-3.7-0.5c-1.6-1.4-3.2-2.7-4.8-4.1l0-0.1c-7.9-5.7-15.7-11.7-23.8-17.2
	c-8.6-5.8-17.6-11-26.4-16.4C983.1,254.7,983.4,254.4,983.6,254.1z"/>
<path class="st4" d="M290.6,292.6c-3.3-5.7-6.6-11.4-10.5-18.1c-4.2,7.5-7.7,14-11.3,20.5c2.8-11.3,5.5-22.6,8.3-33.9
	c1.8,0,3.6-0.1,5.4-0.1C285.2,271.5,287.9,282,290.6,292.6z"/>
<path class="st12" d="M899.4,926c-0.3-0.7-0.4-1.3-0.2-2c20.1,5.8,40.2,11.6,60.3,17.4c-13.3-1.9-26.8-3.1-39.9-6.1
	C912.5,933.8,906.1,929.2,899.4,926z"/>
<path class="st17" d="M778.9,1290.5c6.5-1.7,12.8-3.8,19.4-5c14.2-2.5,28.4-4.6,42.6-6.9c0.2,0.7,0.2,1.4,0.1,2.1
	C820.4,1284,799.7,1287.3,778.9,1290.5z"/>
<path class="st13" d="M766.5,708.3c0.7,0,1.3,0,1.9,0.1c-0.9,24.3-1.8,48.6-2.7,72.9c-0.5-8.8-1.6-17.5-1.4-26.3
	C764.6,739.4,765.7,723.8,766.5,708.3z"/>
<path class="st7" d="M1110.3,1141c6.4-9.4,9.9-21.6,23.7-23.7C1126.1,1125.2,1118.2,1133.1,1110.3,1141z"/>
<path class="st1" d="M310,726.5c13.1-5.8,26.1-11.6,39.2-17.3C336.2,714.9,323.1,720.7,310,726.5z"/>
<path class="st13" d="M757.8,195.7c-13-0.2-26-0.4-39.1-0.6C731.7,195.3,744.8,195.5,757.8,195.7z"/>
<path class="st0" d="M1296,288.7c-1-10.7-2-21.3-3-32c0.7-2.2,1.5-4.4,2.2-6.6C1295.4,263,1295.7,275.8,1296,288.7z"/>
<path class="st13" d="M628.7,204.2c-11.1,2.8-22.1,5.6-33.2,8.4C606.6,209.8,617.7,207,628.7,204.2z"/>
<path class="st6" d="M1081.2,790.2c-7.6,2.9-15.1,5.8-22.7,8.7c-3.2,0.6-6.5,1.2-9.7,1.8C1059.6,797.2,1070.4,793.7,1081.2,790.2z"
	/>
<path class="st27" d="M1288.4,374.8c-4.7-10.1,0.7-18,5.7-26C1292.2,357.5,1290.3,366.2,1288.4,374.8z"/>
<path class="st27" d="M477.9,255.5c-7.6,4-15.2,8.1-22.8,12.1C462.7,263.6,470.3,259.6,477.9,255.5z"/>
<path class="st18" d="M987.6,1224.8c1.3-3.5,2.7-7,4-10.6c2.5,2.6,5,5.2,7.4,7.8c0,0.5-0.2,0.7-0.7,0.7
	C994.8,1223.4,991.2,1224.1,987.6,1224.8z"/>
<path class="st4" d="M308,325.6c2.8-3.7,5.7-7.4,8.5-11.1c1.9,1,3.9,2,5.8,3.1c-1.1,2-1.8,5-3.5,5.7
	C315.5,324.7,311.7,324.9,308,325.6z"/>
<path class="st4" d="M236.3,314.7c5.2,3.5,10.5,7.1,15.7,10.6c-5.4-1.4-11-2.2-16.2-4.2C230.9,319.2,230.9,316.5,236.3,314.7z"/>
<path class="st20" d="M1271.6,409.4c0.7-3.6,1.3-7.1,2-10.7c0,0,0.2-0.2,0.2-0.2c0.7-1.3,1.5-2.7,2.2-4c1-0.1,2-0.2,3.1-0.3
	c0.6,0.2,1.1,0.4,1.7,0.4C1277.7,399.5,1274.7,404.4,1271.6,409.4z"/>
<path class="st4" d="M189,841.9c0.7,0,1.4,0,2.1,0c0.6,5.8,1.2,11.6,1.8,17.4C191.6,853.5,190.3,847.7,189,841.9z"/>
<path class="st1" d="M292.8,737.5c4.8-3.2,9.7-6.3,14.5-9.5C302.5,731.2,297.7,734.4,292.8,737.5z"/>
<path class="st0" d="M1296.5,317c-0.1-5.1-0.1-10.2-0.2-15.3C1296.4,306.8,1296.5,311.9,1296.5,317z"/>
<path class="st0" d="M324.6,779.4c-5.6,2.9-11.2,5.8-16.8,8.7C313.4,785.2,319,782.3,324.6,779.4z"/>
<path class="st8" d="M695.4,1291c4.6-0.5,9.2-0.9,13.9-1.4C704.7,1290,700,1290.5,695.4,1291z"/>
<path class="st27" d="M454.1,268.4c-4.7,2.6-9.4,5.3-14.1,7.9C444.8,273.7,449.4,271,454.1,268.4z"/>
<path class="st12" d="M976.7,943.5c-4.3-0.6-8.7-1.2-13-1.8C968,942.3,972.4,942.9,976.7,943.5z"/>
<path class="st27" d="M1280.8,394.6c-0.6-0.1-1.2-0.2-1.7-0.4c1.8-5,3.6-9.9,5.4-14.9c0.9-0.2,1.7-0.3,2.6-0.5
	C1285,384.1,1282.9,389.3,1280.8,394.6z"/>
<path class="st11" d="M473.2,1011.1c3.9-2.3,7.9-4.6,11.8-7C481.1,1006.5,477.2,1008.8,473.2,1011.1z"/>
<path class="st0" d="M1295.1,349c0.3-7.1,0.6-14.2,0.9-21.4C1295.7,334.8,1295.4,341.9,1295.1,349z"/>
<path class="st1" d="M282.2,744.1c2.7-1.7,5.4-3.5,8.1-5.2C287.6,740.7,284.9,742.4,282.2,744.1z"/>
<path class="st0" d="M1271.3,639.6c-0.5-4.3-0.9-8.6-1.4-12.9C1270.3,631,1270.8,635.3,1271.3,639.6z"/>
<path class="st24" d="M710.2,988.2c0.4-6.4,0.8-12.9,1.2-19.3C711,975.4,710.6,981.8,710.2,988.2z"/>
<path class="st18" d="M425.5,1148.9c-1.3,3.8-2.6,7.6-3.9,11.4C422.9,1156.4,424.2,1152.7,425.5,1148.9z"/>
<path class="st6" d="M1015.9,789.2c2.5-2.5,4.9-5,7.4-7.5C1020.9,784.2,1018.4,786.7,1015.9,789.2z"/>
<path class="st17" d="M987.6,1224.8c3.6-0.7,7.2-1.4,10.7-2.1c-3.6,1.9-7.2,3.8-10.8,5.7C987.6,1227.2,987.6,1226.1,987.6,1224.8
	C987.5,1224.9,987.6,1224.8,987.6,1224.8z"/>
<path class="st8" d="M638.6,1283.6c4.2,0.8,8.4,1.5,12.6,2.3C647,1285.1,642.8,1284.3,638.6,1283.6z"/>
<path class="st6" d="M1101.1,782.9c-2.8,1-5.6,2.1-8.4,3.1C1095.5,785,1098.3,783.9,1101.1,782.9z"/>
<path class="st0" d="M1269.2,620.7c-1.3-4.4-2.5-8.9-3.7-13.3C1266.7,611.8,1267.9,616.2,1269.2,620.7z"/>
<path class="st12" d="M766.4,1048.4c0.8,5.9,1.5,11.7,2.3,17.6c-0.7,0.1-1.3,0.1-2,0C766.6,1060.1,766.5,1054.2,766.4,1048.4z"/>
<path class="st14" d="M663.8,758.2c3.7,1.2,7.5,2.4,11.2,3.6C671.2,760.6,667.5,759.4,663.8,758.2z"/>
<path class="st18" d="M987.5,1224.9c0,1.2,0,2.4,0,3.5c-2.2,1-4.3,2-6.5,2.9C983.2,1229.2,985.4,1227,987.5,1224.9z"/>
<path class="st16" d="M841.3,788.7c1.1-2.8,2.3-5.7,3.4-8.5C843.6,783.1,842.4,785.9,841.3,788.7z"/>
<path class="st4" d="M264.8,299.8c-2.8,2.2-5.6,4.4-8.4,6.7C259.2,304.3,262,302.1,264.8,299.8z"/>
<path class="st4" d="M248,310.7c-3.7,1.2-7.5,2.5-11.2,3.7C240.5,313.2,244.2,312,248,310.7z"/>
<path class="st13" d="M873.5,213.6c-2.1-0.6-4.3-1.3-6.4-1.9C869.2,212.4,871.4,213,873.5,213.6z"/>
<path class="st17" d="M766.7,1066c0.7,0.1,1.3,0.1,2,0c-0.4,2-0.8,4-1.1,6C767.3,1070,767,1068,766.7,1066z"/>
<path class="st20" d="M1267.2,417.7c1.2-2.1,2.5-4.1,3.7-6.2C1269.6,413.6,1268.4,415.6,1267.2,417.7z"/>
<path class="st4" d="M277.3,358.2c2.2-0.2,4.4-0.3,6.7-0.5c-0.8,1.4-1.7,2.7-2.5,4.1C280.1,360.6,278.7,359.4,277.3,358.2z"/>
<path class="st7" d="M1262.3,876c0.7-2.1,1.4-4.1,2-6.2C1263.7,871.9,1263,873.9,1262.3,876z"/>
<path class="st1" d="M260.8,753.5c2.1-0.4,4.3-0.8,6.4-1.2C265.1,752.8,263,753.1,260.8,753.5z"/>
<path class="st17" d="M767.5,1287.2c2.3,1.3,4.6,2.6,6.9,3.9C772.1,1289.8,769.8,1288.5,767.5,1287.2z"/>
<path class="st6" d="M986.4,811.3c2.3-1.1,4.6-2.2,6.9-3.2C991,809.2,988.7,810.2,986.4,811.3z"/>
<path class="st12" d="M488.4,1065.9c0.1,0.6,0.2,1.3,0.3,1.9c-1.6,0.9-3.1,1.7-4.7,2.6c-0.7-0.2-1.4-0.4-2.2-0.7
	C484.1,1068.5,486.3,1067.2,488.4,1065.9z"/>
<path class="st12" d="M501.5,1057.8c-2.1,1.2-4.3,2.4-6.4,3.6C497.2,1060.2,499.4,1059,501.5,1057.8z"/>
<path class="st16" d="M848,770c0.8-1.8,1.6-3.7,2.4-5.5C849.6,766.3,848.8,768.2,848,770z"/>
<path class="st6" d="M910.1,774.4c0,0-0.7,0.3-0.7,0.3s-0.8-0.2-0.8-0.2c1.1-1.4,2.1-2.9,3.2-4.3C911.2,771.6,910.6,773,910.1,774.4
	z"/>
<path class="st0" d="M307.7,788.1c-2.1,1.4-4.3,2.8-6.4,4.2C303.4,790.9,305.5,789.5,307.7,788.1z"/>
<path class="st4" d="M314.5,313.6c-2.1-1.1-4.3-2.3-6.4-3.4C310.2,311.4,312.3,312.5,314.5,313.6z"/>
<path class="st4" d="M256.4,306.5c-2.3,1.2-4.6,2.4-6.9,3.6C251.8,308.9,254.1,307.7,256.4,306.5z"/>
<path class="st4" d="M253.6,326c2,1.4,3.9,2.7,5.9,4.1C257.5,328.7,255.5,327.4,253.6,326z"/>
<path class="st8" d="M673.8,1289c1.9,0.2,3.8,0.3,5.7,0.5C677.6,1289.3,675.7,1289.1,673.8,1289z"/>
<path class="st6" d="M999.1,803.5c1.5-0.8,2.9-1.7,4.4-2.5C1002.1,801.9,1000.6,802.7,999.1,803.5z"/>
<path class="st4" d="M271.1,344.7c1.2,2.3,2.5,4.6,3.7,6.9C273.6,349.3,272.4,347,271.1,344.7z"/>
<path class="st13" d="M766.2,409.5c0.2,3.6,0.3,7.2,0.5,10.7C766.5,416.7,766.4,413.1,766.2,409.5z"/>
<path class="st16" d="M871.1,734.8c1.3-1.6,2.6-3.1,3.9-4.7C873.7,731.7,872.4,733.2,871.1,734.8z"/>
<path class="st4" d="M266.6,337c1.2,2,2.4,4.1,3.6,6.1C269,341.1,267.8,339,266.6,337z"/>
<path class="st13" d="M765.6,403.5c-0.1,1.3-0.2,2.6-0.3,4c-1-1.6-2.1-3.2-3.1-4.8C763.3,402.9,764.4,403.2,765.6,403.5z"/>
<path class="st0" d="M1223.7,498.7c-1.2-1.8-2.4-3.6-3.6-5.5C1221.2,495.1,1222.5,496.9,1223.7,498.7z"/>
<path class="st8" d="M656.5,1286.9c1.3,0.1,2.5,0.2,3.8,0.4C659.1,1287.1,657.8,1287,656.5,1286.9z"/>
<path class="st0" d="M1097.3,220.1c-1.4,1.4-2.8,2.7-4.3,4.1C1094.4,222.9,1095.9,221.5,1097.3,220.1z"/>
<path class="st4" d="M297,301.6c-1.2-1.4-2.5-2.8-3.7-4.2C294.5,298.8,295.7,300.2,297,301.6z"/>
<path class="st6" d="M1004.9,799.8c1-1,2-2,3-3C1006.9,797.8,1005.9,798.8,1004.9,799.8z"/>
<path class="st2" d="M241.6,992.5c1,1.7,2,3.4,3,5.1C243.6,996,242.6,994.2,241.6,992.5z"/>
<path class="st7" d="M1248.6,926.7c0.5-1.8,1.1-3.5,1.6-5.3C1249.6,923.2,1249.1,924.9,1248.6,926.7z"/>
<path class="st16" d="M880.2,725c1.1-1.2,2.1-2.3,3.2-3.5C882.3,722.7,881.2,723.8,880.2,725z"/>
<path class="st6" d="M1045.6,802.9c-1,0.7-2,1.4-3,2.1C1043.6,804.2,1044.6,803.6,1045.6,802.9z"/>
<path class="st19" d="M488.9,691.1c1.2,0.1,2.4,0.1,3.7,0.2C491.3,691.2,490.1,691.2,488.9,691.1z"/>
<path class="st18" d="M420.4,1165c-0.2,1.3-0.3,2.5-0.5,3.8C420.1,1167.5,420.3,1166.3,420.4,1165z"/>
<path class="st7" d="M1255.2,905.3c0.6-1.8,1.2-3.6,1.8-5.5C1256.4,901.7,1255.8,903.5,1255.2,905.3z"/>
<path class="st7" d="M1086.6,1162.4c1.6-1.3,3.2-2.6,4.8-4C1089.8,1159.7,1088.2,1161.1,1086.6,1162.4z"/>
<path class="st7" d="M1260.5,884.7c0.4-1.4,0.7-2.8,1.1-4.2C1261.2,882,1260.8,883.4,1260.5,884.7z"/>
<path class="st14" d="M657.3,756c1.5,0.5,3.1,1,4.6,1.5C660.4,757,658.8,756.5,657.3,756z"/>
<path class="st14" d="M646.8,751.5c1.4,0.5,2.9,1,4.3,1.5C649.7,752.5,648.3,752,646.8,751.5z"/>
<path class="st16" d="M845.7,778.1c0.4-1.4,0.8-2.9,1.3-4.3C846.6,775.2,846.1,776.6,845.7,778.1z"/>
<path class="st6" d="M1090.1,786.8c-1.2,0.5-2.4,0.9-3.6,1.4C1087.7,787.7,1088.9,787.3,1090.1,786.8z"/>
<path class="st0" d="M1258.3,582.3c-0.5-1.7-1.1-3.4-1.6-5.1C1257.2,578.9,1257.7,580.6,1258.3,582.3z"/>
<path class="st4" d="M305.4,308.6c-1.1-0.9-2.2-1.8-3.3-2.7C303.2,306.7,304.3,307.7,305.4,308.6z"/>
<path class="st4" d="M304.2,327.9c1.1-0.7,2.3-1.4,3.4-2.1C306.5,326.5,305.4,327.2,304.2,327.9z"/>
<path class="st14" d="M681.2,764.3c0.8,0.3,1.6,0.6,2.4,1C682.8,764.9,682,764.6,681.2,764.3z"/>
<path class="st0" d="M301.2,792.4c-1.4,0.7-2.8,1.5-4.2,2.2C298.3,793.8,299.7,793.1,301.2,792.4z"/>
<path class="st4" d="M284.7,355.7c0.6-1.2,1.2-2.4,1.8-3.6C285.9,353.3,285.3,354.5,284.7,355.7z"/>
<path class="st14" d="M687.4,766.7c0.8,0.5,1.7,0.9,2.5,1.4C689.1,767.6,688.3,767.2,687.4,766.7z"/>
<path class="st4" d="M292.9,296.7c-0.6-1.1-1.2-2.3-1.8-3.4C291.7,294.4,292.3,295.6,292.9,296.7z"/>
<path class="st4" d="M286.9,351.3c0.5-1.3,1-2.7,1.6-4C287.9,348.6,287.4,349.9,286.9,351.3z"/>
<path class="st7" d="M479.8,1073.6c-1.4,0.9-2.9,1.7-4.3,2.6C477,1075.4,478.4,1074.5,479.8,1073.6z"/>
<path class="st27" d="M482,253.2c-1,0.6-2.1,1.1-3.1,1.7C479.9,254.3,480.9,253.7,482,253.2z"/>
<path class="st0" d="M1092.9,224.4c-1.4,0.7-2.7,1.4-4.1,2.1C1090.2,225.8,1091.5,225.1,1092.9,224.4z"/>
<path class="st13" d="M751.7,395.8c1.3,0.6,2.6,1.2,3.9,1.9C754.3,397,753,396.4,751.7,395.8z"/>
<path class="st12" d="M1211.6,830.1c-0.2,0.6-0.6,1-1.2,1.3C1210.8,830.9,1211.2,830.5,1211.6,830.1z"/>
<path class="st4" d="M295,336.2c0.6-0.6,1.3-1.3,1.9-1.9C296.3,334.9,295.6,335.6,295,336.2z"/>
<path class="st7" d="M1265.1,865.5c0.1-0.7,0.2-1.4,0.3-2.1C1265.3,864.1,1265.2,864.8,1265.1,865.5z"/>
<path class="st4" d="M301.7,329.9c0.6-0.5,1.1-0.9,1.7-1.3C302.9,329,302.3,329.4,301.7,329.9z"/>
<path class="st4" d="M293.1,338.4c0.5-0.6,1.1-1.3,1.6-1.9C294.2,337.1,293.7,337.8,293.1,338.4z"/>
<path class="st4" d="M291.6,340.6c0.4-0.5,0.7-1.1,1.1-1.6C292.6,339.7,292.3,340.3,291.6,340.6z"/>
<path class="st6" d="M972.9,817.2c-0.4-0.2-0.6-0.5-0.7-0.9c0.7-0.1,1.3,0.1,1.8,0.5c0,0-0.4,0.6-0.4,0.6L972.9,817.2z"/>
<path class="st7" d="M1256.5,893.5c0.6,0,1.3,0,1.9,0c-0.1,0.7-0.3,1.3-0.4,2C1257.5,894.8,1257,894.2,1256.5,893.5z"/>
<path class="st5" d="M1224.1,815.2c-0.3,0.4-0.6,0.6-1.1,0.7c0,0,0.3-0.8,0.3-0.8L1224.1,815.2z"/>
<path class="st4" d="M289,345c0.5-0.8,0.9-1.6,1.4-2.3C290,343.4,289.5,344.2,289,345z"/>
<path class="st12" d="M1207.3,834.6c-0.2,0.5-0.5,0.8-0.9,1C1206.7,835.3,1207,834.9,1207.3,834.6z"/>
<path class="st27" d="M348.5,346.1c-0.1,0.5-0.3,0.8-0.8,0.8c-0.1-0.2-0.2-0.4-0.4-0.6C347.8,346.3,348.1,346.2,348.5,346.1z"/>
<path class="st4" d="M301.3,305.2c-0.5-0.4-1-0.9-1.6-1.3C300.5,304,301,304.4,301.3,305.2z"/>
<path class="st18" d="M1246.3,930.3c0.3-0.7,0.6-1.4,0.9-2.1C1246.8,928.8,1246.5,929.6,1246.3,930.3z"/>
<path class="st4" d="M299.1,303.4c-0.7-0.5-1.3-1.1-2-1.6C297.8,302.3,298.5,302.8,299.1,303.4z"/>
<path class="st27" d="M330.6,366.2c-0.5,0.6-1,1.2-1.5,1.8C329.6,367.4,330.1,366.8,330.6,366.2z"/>
<path class="st4" d="M267.2,297.7c-0.8,0.7-1.6,1.4-2.4,2.1C265.6,299.1,266.4,298.4,267.2,297.7z"/>
<path class="st4" d="M264.6,334.5c0.5,0.6,1,1.2,1.5,1.7C265.6,335.7,265.1,335.1,264.6,334.5z"/>
<path class="st11" d="M486.5,1003.5c1-0.4,2-0.8,3-1.2C488.5,1002.7,487.5,1003.1,486.5,1003.5z"/>
<path class="st0" d="M1243.4,536.7c-0.4-0.8-0.9-1.6-1.3-2.4C1242.5,535.1,1242.9,535.9,1243.4,536.7z"/>
<path class="st14" d="M676.5,762.4l0.6-0.1c0,0,0.3,0.5,0.3,0.5s-0.7,0.4-0.7,0.4L676.5,762.4z"/>
<path class="st0" d="M1256.1,573.9c-0.4-1-0.9-2.1-1.3-3.1C1255.2,571.8,1255.6,572.9,1256.1,573.9z"/>
<path class="st14" d="M653,753.9l0.5-0.1c0,0,0.2,0.5,0.2,0.5c0,0-0.7,0.3-0.7,0.3L653,753.9z"/>
<path class="st6" d="M929,752.1c-0.1,0.7-0.5,1-1.2,0.8c0,0,0.3-0.8,0.3-0.8L929,752.1z"/>
<path class="st7" d="M481.9,1069.7c0.7,0.2,1.5,0.4,2.2,0.7c-0.9,0.6-1.8,1.1-2.7,1.6C481.5,1071.3,481.7,1070.5,481.9,1069.7z"/>
<path class="st0" d="M1230.6,510.6c-0.5-0.7-1-1.4-1.4-2.1C1229.6,509.1,1230.1,509.8,1230.6,510.6z"/>
<path class="st14" d="M642.6,749.4c0,0,0.4,0.2,0.4,0.2c0,0-0.5,0.4-0.5,0.4L642.6,749.4z"/>
<path class="st1" d="M278.5,745.3c0,0,0.4-0.1,0.3-0.1c0,0,0,0.4,0,0.4L278.5,745.3z"/>
<path class="st4" d="M297.1,334.1c0.6-0.6,1.3-1.3,1.9-1.9C298.4,332.8,297.8,333.4,297.1,334.1z"/>
<path class="st13" d="M746.6,392.5c0.7,0.5,1.5,1,2.2,1.5C748.1,393.5,747.4,393,746.6,392.5z"/>
<path class="st7" d="M1136.1,1114.9c0.6-0.7,1.3-1.3,1.9-2C1137.3,1113.6,1136.7,1114.3,1136.1,1114.9z"/>
<path class="st0" d="M1088.6,226.6c-0.7,0.6-1.4,1.3-2.1,1.9C1087.2,227.8,1087.9,227.2,1088.6,226.6z"/>
<path class="st4" d="M262.5,332.5c0.6,0.5,1.2,1.1,1.8,1.6C263.6,333.6,263,333,262.5,332.5z"/>
<path class="st16" d="M884.6,720.5l0.1-0.9c0,0,0.9-0.1,0.9-0.1C885.3,719.8,884.9,720.2,884.6,720.5z"/>
<path class="st0" d="M1099.4,218c-0.7,0.7-1.4,1.3-2,2C1098.1,219.3,1098.8,218.7,1099.4,218z"/>
<path class="st0" d="M1101.9,215.9c-0.8,0.6-1.5,1.3-2.3,1.9C1100.3,217.2,1101.1,216.6,1101.9,215.9z"/>
<path class="st4" d="M299.3,331.9c0.6-0.6,1.3-1.1,1.9-1.7C300.6,330.8,300,331.4,299.3,331.9z"/>
<path class="st13" d="M757.7,398.5c0.7,0.6,1.4,1.2,2.1,1.7C759.1,399.7,758.4,399.1,757.7,398.5z"/>
<path class="st6" d="M1168.9,798.4c0.4-0.6,0.8-1.1,1.2-1.7C1169.7,797.3,1169.3,797.9,1168.9,798.4z"/>
<path class="st13" d="M766.7,669.5c0,0.8,0,1.7,0,2.5C766.6,671.2,766.6,670.4,766.7,669.5z"/>
<path class="st0" d="M1245.4,541.3c-0.5-0.9-1-1.9-1.5-2.8C1244.4,539.5,1244.9,540.4,1245.4,541.3z"/>
<path class="st0" d="M1247.5,547.9c-0.4-1-0.9-1.9-1.3-2.9C1246.6,546,1247.1,546.9,1247.5,547.9z"/>
<path class="st8" d="M1026.6,1206.5c0.4-0.6,1-0.9,1.8-0.9C1027.8,1205.9,1027.2,1206.2,1026.6,1206.5z"/>
<path class="st4" d="M260.3,330.7c0.5,0.5,1.1,0.9,1.6,1.4C261.4,331.6,260.8,331.1,260.3,330.7z"/>
<path class="st8" d="M708,1222.6c0.7-0.6,1.4-1.2,2.1-1.9c0.4,0.6,0.4,1.2-0.1,1.7c0,0-1,0.1-1,0.1L708,1222.6z"/>
<path class="st0" d="M1249.6,554.5c-0.4-1-0.8-2.1-1.3-3.1C1248.8,552.5,1249.2,553.5,1249.6,554.5z"/>
<path class="st0" d="M1217.2,485.9c-0.5-1.1-1-2.2-1.6-3.3C1216.2,483.7,1216.7,484.8,1217.2,485.9z"/>
<path class="st18" d="M572.5,1268c0.8-0.1,1.3,0.3,1.6,1C573.6,1268.7,573.1,1268.3,572.5,1268z"/>
<path class="st18" d="M597.5,1275.1c0.8,0.2,1.6,0.4,2.4,0.6C599.1,1275.6,598.3,1275.3,597.5,1275.1z"/>
<path class="st0" d="M1265,605.4c-0.3-0.8-0.7-1.5-1-2.3C1264.3,603.9,1264.7,604.7,1265,605.4z"/>
<path class="st0" d="M1219.5,492.1c-0.6-1-1.2-2.1-1.8-3.1C1218.4,490,1219,491.1,1219.5,492.1z"/>
<path class="st0" d="M1226,502.9c-0.6-1-1.2-2.1-1.9-3.1C1224.7,500.8,1225.4,501.8,1226,502.9z"/>
<path class="st0" d="M1228.2,506.8c-0.6-0.9-1.3-1.8-1.9-2.8C1227,505,1227.6,505.9,1228.2,506.8z"/>
<path class="st12" d="M1209.4,832.3c-0.2,0.5-0.6,0.9-1.1,1.1C1208.7,833.1,1209.1,832.7,1209.4,832.3z"/>
<path class="st12" d="M1213.7,827.5c-0.4,0.5-0.8,1.1-1.3,1.6C1212.9,828.6,1213.3,828.1,1213.7,827.5z"/>
<path class="st10" d="M1207.7,467.6c1.4,7.5,3.7,14.9,4.2,22.4c1.1,18.9,1.4,37.8,2,56.8c0.6,9.7,1.1,19.3,1.7,29
	c-10.8-10.1-21.3-20.5-32.4-30.2c-6.9-6.1-14.5-11.2-21.9-16.8c0,0-0.5-0.4-0.5-0.4c-0.5-0.4-1-0.7-1.6-1.1c-0.4-0.1-0.8-0.4-1-0.9
	c-1-0.9-2-1.8-3-2.6c0,0-0.2-0.2-0.2-0.2c-8.4-15.6-22.6-23.8-38.6-29.6c0,0-0.5-0.3-0.5-0.3c-1.4-0.9-2.8-1.8-4.3-2.8
	c-0.6-0.2-1-0.5-1.3-1.1c-0.2-1.8,0.2-5-0.7-5.3c-6.8-3-13.8-5.6-20.8-8.3c-14-6.9-27.6-14.6-41.9-20.4c-22.4-9.1-45.3-17-67.9-25.4
	c-0.9-2-1.8-4-2.7-6c0.2-6.4,0.4-12.8,0.6-19.2c4.8-6.6,11-10.8,18.5-14.5c8.6-4.2,17.2-10.4,22.8-17.9c6.2-8.2,15.9-14.7,17.1-26.4
	c0.1-1.3,2.4-2.4,3.7-3.6c2.2,11.4,4.4,22.9,6.6,34.3c4.3,10,8.7,20,13,30c5.2,8.6,10.5,17.3,17.4,28.8c6.8-11.4,11.9-20,17-28.7
	c5.2-2.9,7.2-6.6,4.8-12.9c-2-5.4-2.3-11.5-3.4-17.3c4.5-2.1,9-4.2,13.5-6.4c0,0.7,0.1,1.3,0.2,2c3.3,9.3,6.6,18.6,10.3,29.2
	c14.7-5.7,28-10.9,41.4-16.1c17.9-4.3,35.8-8.7,53.7-13c2.5,1.2,5,2.3,8,3.7c-2.6,16.1-17,18-28.4,21.4
	c-18.9,5.8-38.6,9.2-57.9,13.7c-3.5,0.8-7.3,1.5-10,3.4c-2.3,1.6-4.3,5.1-4.3,7.8c0,1.9,3.3,4.6,5.7,5.5c13.7,5,27.6,9.6,41.4,14.3
	c3.3,1.1,6.5,2.7,9.9,3.1C1192.1,447.3,1201.7,454.9,1207.7,467.6z"/>
<path class="st29" d="M938,424.6c5.2,2.1,10.3,4.5,15.7,6.2c11,3.5,22.7,5.3,33,10.3c4.9,2.4,8.1,4.6,14.1,3.5
	c3.7-0.7,8.8,2.8,12.3,5.7c5,4.2,7.7,8.5,16.8,6.1c7.4-1.9,17.8,3.5,25.5,7.9c11.8,6.8,22.3,15.9,33.8,23.3c7.8,5,17.2,7.6,24.7,13
	c9.1,6.6,16.9,15.2,25.5,22.5c3.2,2.7,7.1,4.5,10.7,6.7c2.9,1.7,5.8,3.4,9.6,5.7c-3.9,4.3-7,7.5-10.8,11.7c4.7,3.4,9.6,6.3,13.6,10
	c3.9,3.7,8.1,7.8,10.2,12.6c1.6,3.6,0.3,8.6,0.3,13c-5.4-0.7-12.8,0.6-15.9-2.5c-6.1-6.1-12.4-7.4-20.2-7.5c-4.2,0-8.5-1.1-12.4-2.6
	c-28.5-11.1-57.2-21.8-85.3-33.9c-8.1-3.5-13.7-13-21.8-15.9c-14.1-5-23.2-15.7-34.7-23.9c-12.1-8.6-24.1-19-41.5-16.5
	c-6.4,0.9-13.4-2.4-22.4-4.2c-0.8-10.2-1.7-22.2-2.6-33.8c-4.5-1.5-9.5-3.1-14.5-4.7c0.1-1.4,0.2-2.8,0.3-4.1
	c6.2-1.4,12.3-2.7,20.4-4.5c0.2,0.2,2.5,2,5.6,4.5c2.3-3.4,4.1-6.2,5.9-9C935.3,424.3,936.7,424.5,938,424.6z"/>
<path class="st20" d="M938,424.6c-1.3-0.2-2.7-0.4-4.1-0.5c0,0,0-0.5,0-0.5c-4.3-0.5-8.6-1-12.9-1.5c-5.7-0.5-11.4-1.1-17.1-1.6
	c-0.7,0.7-1.5,1.3-2.2,2c0.1,3.5,0.2,7.1,0.3,10.6c-0.1,1.4-0.2,2.8-0.3,4.1c-0.3,2.8-0.7,5.6-1,8.4c-0.7-0.1-1.4,0-2.1,0.1
	c-1.2,0-2.4,0-3.6,0c1.5-11.4,3-22.9,4.6-34.3c25.6,4.3,51.2,8.6,76.8,12.9c0.9,2,1.8,4,2.7,6C965.4,428.5,951.7,426.6,938,424.6z"
	/>
<path class="st20" d="M901.7,566.3c-0.3,3.7-0.6,7.4-0.9,11.1c-1.2-3-3.2-6-3.4-9c-0.5-9.2-0.2-18.5-0.3-27.8
	c-0.7-19.3-1.4-38.6-2.1-58c1.2-4.2,2.4-8.3,3.6-12.5l1,0l1-0.1c0.3,9.9,0.6,19.8,0.9,29.7c0,16.5,0,33.1,0,49.6
	c0,0.7,0,1.4,0.1,2.1C901.6,556.4,901.7,561.4,901.7,566.3z"/>
<path class="st20" d="M1161.3,528.7c7.3,5.6,15,10.7,21.9,16.8c11.1,9.8,21.6,20.1,32.4,30.2c0.9,4.7,1.8,9.3,2.7,14l-0.8,0.7
	C1198.7,569.9,1180,549.3,1161.3,528.7z"/>
<path class="st20" d="M1244.7,630c-9.1-13.2-18.2-26.4-27.2-39.5c0,0,0.8-0.7,0.8-0.7c13.8,9.8,22.1,23.4,27.7,39.1
	C1245.5,629.2,1245.1,629.6,1244.7,630z"/>
<path class="st20" d="M1116.5,493.9c16,5.8,30.1,14,38.6,29.6C1142.2,513.7,1129.4,503.8,1116.5,493.9z"/>
<path class="st20" d="M1088.9,476.2c7,2.7,14,5.2,20.8,8.3c0.9,0.4,0.5,3.5,0.7,5.3C1103.3,485.3,1096.1,480.7,1088.9,476.2z"/>
<path class="st29" d="M1181,564.1c3.5,1.1,7,2.2,12.8,4.1c-3.3,3-6.1,6.7-7,6.3c-3.2-1.5-5.8-4.4-8.6-6.8
	C1179.1,566.5,1180,565.3,1181,564.1z"/>
<path class="st13" d="M900.7,470l-1,0.1c0,0-1,0-1,0c0-8.1,0-16.2-0.1-24.3c0.7-0.1,1.4-0.2,2.1-0.1
	C900.7,453.8,900.7,461.9,900.7,470z"/>
<path class="st13" d="M1105.1,636.9c-0.2,0.6-0.4,1.4-0.8,1.6c-0.4,0.2-1.1-0.4-1.7-0.6c0.2-0.6,0.4-1.4,0.8-1.6
	C1103.8,636.1,1104.5,636.7,1105.1,636.9z"/>
<path class="st20" d="M1111.8,490.9c1.4,0.9,2.8,1.8,4.3,2.8C1114.6,492.7,1113.2,491.8,1111.8,490.9z"/>
<path class="st29" d="M1211.7,643.4c-1.5,0.1-3,0.2-4.5,0.4c-0.1-0.4-0.1-0.8-0.2-1.3c1.5-0.2,3-0.4,4.5-0.7
	C1211.6,642.4,1211.6,642.9,1211.7,643.4z"/>
<path class="st20" d="M1155.3,523.7c1,0.9,2,1.8,3,2.6C1157.3,525.5,1156.3,524.6,1155.3,523.7z"/>
<path class="st20" d="M1159.3,527.2c0.5,0.4,1,0.7,1.6,1.1C1160.3,528,1159.8,527.6,1159.3,527.2z"/>
<path class="st19" d="M282.1,427.5c10.4,2.3,17.4-4,26.2-7.8c10.5-4.5,25.3,1.3,39.3,2.7c0.5-1.1,1.5-3.5,3.6-8
	c2.7,5.2,4.4,8.7,6.2,12.1c0.1,10.7,0.2,21.4,0.2,32c0,25.9,0,51.8,0,77.7c1.1,0.1,2.1,0.3,3.2,0.4c10-13.1,20-26.1,30.8-40.3
	c13.4,15.7,25.8,30,38.1,44.4c0.9-0.6,1.9-1.1,2.8-1.7c0-22.5,0-44.9,0-67.4c0-2.9,0-5.9,0-8.8c1.4-3.1,4-6.1,4.1-9.2
	c0.5-20.6,0.4-41.2,0.5-61.7c1.4-0.8,3.4-1.3,4.2-2.5c6.4-8.9,14.2-11.5,24.9-7.6c4.2,1.5,9.9,1.1,14.2-0.5c7-2.5,12.8-2.2,18.6,2.4
	c0,3.5,0.1,7,0.1,10.6c-0.2,0.2-0.7,0.5-0.7,0.7c0.1,0.5,0.5,1.1,0.7,1.6c0.1,0.7,0.2,1.4,0.3,2.1c0,33.7,0.1,67.3,0.1,101
	c-0.2,3.7-0.3,7.3-0.5,11c-7.9-0.6-6,5.3-6.1,9.6c-0.4,12.7-1.5,12.8-12.4,7.6c-3.8-1.8-10.5-0.8-14.4,1.4
	c-6.5,3.7-11.3,10.5-17.9,14c-10.9,5.9-16.5,13.4-15.8,26.3c0.5,10.6-0.9,21.4-2.2,32c-0.3,2.1-3.7,5.5-5.7,5.5
	c-8.9-0.2-17.7-1.4-26.5-2.1c-3-0.2-7.5-1.3-8.7,0.2c-7.6,9.3-16.8,12.3-29.6,8.4c-0.7-30.9,3-63.7-11.8-95.9
	c-9.6-3.6-18,3.2-26.6,9.6c-9.7,7.2-19.3,14.5-29.4,20.9c-2.2,1.4-6.6-0.6-10-1.1c0-14.3-0.1-28.5-0.1-42.8
	c-0.6-15.2-1.4-30.5-1.7-45.7c-0.1-4.1,1.3-8.3,2-12.4c6.2-3,6.1-6,0-8.9C281.9,433.9,282,430.7,282.1,427.5z"/>
<path class="st26" d="M498.9,510.6c0.2-3.7,0.3-7.3,0.5-11c5.1-0.1,10.5,0.9,15.3-0.5c13.1-3.9,25.7-5.5,37.4,3.5
	c8.4,6.5,11.5,2,14.5-5.6c1.5-3.9,4.9-7.1,7.5-10.5c0.2,12.2,0.4,24.4,0.5,36.5c0,10.9-0.1,21.8-0.1,32.7c-0.7,20.2-1.3,40.3-2,60.5
	c-11.4-9.8-24.3-15.7-39.7-14.6c-1.7,0.1-3.8,1.8-5.1,1.2c-11.1-4.4-19.6,1.3-28.4,6.6C499.1,576.5,499,543.5,498.9,510.6z"/>
<path class="st23" d="M425.6,890.9c-3.9,0.4-7.7,0.7-14.4,1.3c10.4,14.3,19.7,27.1,29.9,41.1c-7.8,2.4-15.4,4.8-25,7.8
	c7.2,8.9,13.9,17.2,20.6,25.6c4.4,5.8,8.8,11.6,14.7,19.5c-8.2,1.4-16.2,3.4-24.2,3.9c-6.1,0.4-11.3,0.7-13.7,7.6
	c-0.7,2.1-3,4.6-5,5.1c-10.9,2.3-22,4-33.5,6.1c2.2-5.8,4.1-10.9,6.4-16.9c-12.2-1.9-23.2-3.6-36.1-5.6c13-16,24.5-30.2,36.4-44.9
	c-10.2-3.6-18.6-6.5-27-9.5c4-4.9,8.3-9.7,12.1-14.8c5.8-7.8,11.3-15.7,17.7-24.7c-10.1-1.7-17.4-3-25.5-4.4c1-5,1.8-9.1,2.6-13.2
	c6.3-7.2,12.6-14.5,20.1-23.2c-5.1-1-7.1-1.3-9.1-1.7c0.4-2,0-4.7,1.2-5.7c13.2-12.1,19.5-27.8,23.1-44.2
	c8.8,16.4,17.6,32.8,26.4,49.2c-1.9,1.7-11.6,2.4-1.7,9.8c6.5,8.2,13,16.3,20.1,25.3C435.4,887,430.5,889,425.6,890.9z"/>
<path class="st11" d="M361.6,875c-0.8,4.1-1.6,8.2-2.6,13.2c8.1,1.4,15.4,2.7,25.5,4.4c-6.4,9-11.9,16.9-17.7,24.7
	c-3.8,5.1-8,9.9-12.1,14.8c-2.1-0.8-5.5-1-6.2-2.5c-4.2-9.8-12.3-10.1-21.2-10.3c-15.9-0.3-31.7-1.4-47.6-2.2
	c-0.1-1.4-0.1-2.8-0.2-4.2c0.4-8.1,0.7-16.2,1.1-24.2c14.4-5.3,25-14.3,29.6-30.1c-9-0.6-16.7-1.2-24.3-1.7
	c13.5-10.9,26.6-22.3,30.8-40c10.3,12.4,20,24.1,29.7,35.8c-5.5,2.3-11.1,4.6-19.4,8.1c5.4,3.6,9.3,7.4,13.9,9.1
	C347.6,872.3,354.7,873.3,361.6,875z"/>
<path class="st23" d="M366.8,1076.6c3.2,3.3,7.8,9.3,15,1.6c4.1,3.7,7.8,6.9,10.8,9.6c-9.2,20.1-18.1,39.6-28.5,62.3
	c-21.8-23.4-42.3-45.2-63.1-67.5c4.8-7.3,5.9-13.7-3.4-18.8c0.5-0.9,1-1.9,1.6-2.8c3.7-0.7,7.8-2.9,11-1.9c6.6,2,12.8,5.5,19.1,8.5
	c6,2.9,11.7,7,18,8.8C352.5,1077.7,358.4,1076.6,366.8,1076.6z"/>
<path class="st11" d="M480.8,1001.7c-0.9-2.8-2-5.6-2.7-8.5c-0.1-0.6,1.6-2.2,1.6-2.2c2.2,1.5,4.3,3.1,6.5,4.7
	C484.5,997.7,482.7,999.7,480.8,1001.7z"/>
<path class="st24" d="M425.6,890.9c4.9-1.9,9.8-3.9,16.1-6.4c-7.2-9-13.7-17.2-20.1-25.3c9.4-0.1,18.9-0.8,28.3-0.1
	c18.9,1.4,31.1-7.2,38.9-23.7c1.6-3.5,4.2-6.5,7.2-11.1c5.3,6.1,10,11.6,16.4,18.9c2.4-4.4,5-8.2,6.5-12.3c2.3-6.3,6.1-7.7,11.5-4.3
	c5.1,3.3,10.4,6.5,14.4,10.9c8.3,9.3,17.8,12.2,29.5,8.7c0,18.6,0,37.2,0,55.8c-18.3,3-35.5-1.6-51.7-9.2
	c-6.7-3.1-11.5-10.2-17.2-15.5c-9.3-8.9-9.2-8.1-17.2,1.2c-13.8,16-31.1,26.9-52.5,29.7C429.1,909,424.2,900,425.6,890.9z"/>
<path class="st24" d="M361.6,875c-6.9-1.7-14.1-2.7-20.7-5.2c-4.6-1.7-8.5-5.5-13.9-9.1c8.3-3.5,13.9-5.8,19.4-8.1
	c8.7-0.8,17.5-1.7,26.2-2.5c2,0.4,4,0.8,9.1,1.7C374.2,860.5,367.9,867.8,361.6,875z"/>
<path class="st24" d="M285.9,856.8c7.7,0.5,15.3,1.1,24.3,1.7c-4.6,15.9-15.1,24.9-29.6,30.1c-0.3-7.7-0.7-15.4-1-23.1
	c0-1.5-0.1-3-0.1-4.5c0.2-0.7,0.5-1.5,0.7-2.2C282.1,858.2,284,857.5,285.9,856.8z"/>
<path class="st2" d="M280.2,858.8c-0.2,0.7-0.5,1.5-0.7,2.2c-1-0.3-2.8-0.7-2.8-1c0.9-10.4,2-20.8,3-31.1
	C279.9,838.9,280.1,848.9,280.2,858.8z"/>
<path class="st11" d="M277.9,820.5c0.6-2.3,1.3-4.5,1.9-6.8c-0.2,2.2-0.3,4.5-0.5,6.7C278.8,820.5,278.4,820.5,277.9,820.5z"/>
<path class="st2" d="M277.9,820.5c0.5,0,0.9,0,1.4,0c0.1,1.4,0.3,2.8,0.4,4.3c-1.1,0-2.2-0.1-3.2-0.1
	C276.9,823.2,277.4,821.9,277.9,820.5z"/>
<path class="st7" d="M899.7,947.3c0-0.7,0-1.5-0.1-2.2c0.2,0.5,0.6,1,0.7,1.5C900.4,946.8,899.9,947.1,899.7,947.3z"/>
<path class="st7" d="M899.8,962.3c0-0.7,0-1.4,0-2.1c0.2,0.5,0.5,1,0.6,1.5C900.4,961.9,900,962.1,899.8,962.3z"/>
<path class="st5" d="M768.3,1003.3c0-13.5-0.2-27.1-0.1-40.6c0.1-15.8,5.1-20.2,20.7-17.6c7.8,1.3,15.4,4.5,23.2,5.4
	c4.5,0.6,9.6-0.9,14-2.5c5.2-1.8,10-4.8,15-7.3c0,24.4,0,48.8-0.1,73.2c-13,0-26.1,0.2-39.1-0.1c-3.4-0.1-8.6-0.4-9.9-2.5
	C786,1002,777.2,1002.9,768.3,1003.3z"/>
<path class="st7" d="M768.3,1003.3c8.9-0.3,17.7-1.3,23.7,8.1c1.3,2.1,6.5,2.4,9.9,2.5c13,0.3,26.1,0.1,39.1,0.1
	c0,11.5,0.1,23,0.1,34.5c-16.2-5.3-32.3-11.4-48.8-15.5c-7.5-1.9-15.9,0.2-23.9,0.5C768.4,1023.3,768.3,1013.3,768.3,1003.3z"/>
<path class="st21" d="M897.2,540.6c0,9.3-0.2,18.5,0.3,27.8c0.2,3.1,2.2,6,3.4,9c0,1.3,0,2.6,0.1,3.9c-5.5,5.9-5.8,11.8,0.3,17.5
	c0.1,4.3,0.2,8.5,0.4,12.8c-0.4,5.2-0.7,10.3-1.1,15.5c-11.2-4.7-22.9-8.4-33.3-14.4c-8.7-5-16.2-10.1-25.8-3.1
	c-0.2-8-0.3-16-0.5-24c0.1-17.2,0.2-34.3,0.2-51.5c0.1-0.7,0.2-1.4,0.2-2.1c0.7-0.7,1.4-1.5,2-2.2c1.4-4.2,3.7-8.3,4.1-12.6
	c0.6-6.9,3.9-8.6,9-4.9c10.4,7.5,20.2,15.8,30.5,23.4C890,537.9,893.8,539,897.2,540.6z"/>
<path class="st26" d="M707.7,704.2c-3.5-2.1-7.5-3.5-10.3-6.3c-10.7-10.8-21-22-31.2-32.6c-11.1,9.1-21,17.3-30.8,25.4
	c0-58.7,0-117.4-0.1-176.1c1.8-1.4,5.2-2.8,5.2-4.2c0.2-10.8,7.9-10,15-10.5c6.3-0.4,12.5-0.9,17.2-1.2c6.6,2.3,12.4,4.3,18.2,6.2
	c5.8,1.8,16.6,17.9,16.6,25.6C707.8,588.3,707.7,646.3,707.7,704.2z"/>
<path class="st1" d="M574.4,555.6c0-10.9,0.1-21.8,0.1-32.6c0.6-3.7,1.8-7.4,1.8-11.1c0.3-28.4,0.3-56.9,0.4-85.3
	c11.3-6.8,22.5-13.5,33.6-20.2c1.9,5,3,7.9,4.1,10.8c2.6-2.8,5.1-5.5,7.9-8.5c2.7,0.8,6.4,1.9,10,3c0,31.8,1.1,63.7-0.6,95.5
	c-0.5,9-8.8,17.7-14.2,26c-0.8,1.3-5.4,0.7-8.1,0.1c-15.1-3.6-24.3,2.1-29,17.3C580,552.7,576.6,554,574.4,555.6z"/>
<path class="st19" d="M632.4,411.6c-3.6-1.1-7.2-2.2-10-3c-2.8,3-5.3,5.8-7.9,8.5c-1.1-2.9-2.2-5.8-4.1-10.8
	c-11.1,6.6-22.3,13.4-33.6,20.2c0-16.5,0.1-33,0.1-49.5c4.2-1.7,8.3-3.4,12.5-5.1c4.2-1.6,8.3-4.2,12.6-4.6
	c10.1-0.9,20.2-0.8,30.3-1c0.1,13.7,0.2,27.4,0.3,41.1C632.5,408.8,632.5,410.2,632.4,411.6z"/>
<path class="st10" d="M632.6,407.4c-0.1-13.7-0.2-27.4-0.3-41.1c0.1-15.8,0.1-31.5,0.2-47.3c0.7-2.9,1.5-5.8,2.2-8.7
	c0.6,20.9,1.1,41.8,1.7,62.7c-0.6,11.4-1.2,22.7-1.8,34.1C633.9,407.2,633.3,407.3,632.6,407.4z"/>
<path class="st17" d="M1204.6,859.2c0.8,5.7,1.5,11.4,2.3,17.1c-0.9,0.1-1.8,0.1-2.7,0.2C1204.3,870.7,1204.5,864.9,1204.6,859.2z"
	/>
<path class="st23" d="M635.4,858.9c-0.2,28.7-0.3,57.5-0.5,86.2c-1.3-11.1-3-22.2-3.6-33.3c-0.7-13.1-0.7-26.2-0.5-39.3
	c0.1-7.8,2.1-15.6,1.7-23.4c-0.8-14.8-2.6-29.6-4-44.4c5.9,0.1,6.3,3.8,6.3,8.5C634.8,828.6,635.1,843.7,635.4,858.9z"/>
<path class="st23" d="M634.7,962.4c0,2.1,0,4.3,0,6.4c-2.6-1.1-5.3-2.1-7.9-3.2c0.1-0.7,0.2-1.5,0.4-2.2
	C629.7,963,632.2,962.7,634.7,962.4z"/>
<path class="st27" d="M1051.9,288.5c3.1-7.2,6.3-14.5,9.4-21.7c2.1-4.7,4.1-9.5,6.2-14.2c4.8-3.4,9.6-6.9,15.5-11.1
	c2.2,5.2,4.1,9.8,6.6,15.8c9.3-11.4,18-2.1,27.1-1c9.5,1.2,19.1,0.8,28.7,1.1c0,1-0.1,2-0.1,3c4-2,8-4,12-6
	c-1.4,12.9-2.9,25.9-4.3,38.8c-2.8,2.1-5.6,4.1-8.4,6.2c0.1-1.2,0.1-2.3,0.2-3.5c-6.9-1.6-13.8-3.7-20.8-4.8
	c-9.6-1.5-19.3-2.4-29-3.3c-0.5,0-1.2,2.2-1.9,3.3c-0.8,2.1-1.6,4.2-2.3,6.3c-12.6,1.7-24.9,2.2-34.7-8.2
	C1055.3,288.5,1053.3,288.8,1051.9,288.5z"/>
<path class="st27" d="M1162.1,240c2-1,4.5-3.3,5.8-2.7c2.8,1.2,4.9,4,7.4,5.9c12.3,9.6,16.4,9.7,30,1.4c2.1-1.3,5.6-0.4,8.4-0.6
	c-5.2,6.3-10.4,12.6-15.6,18.8c-0.7,0.7-1.4,1.4-2.1,2.1c-2,2.2-4.1,4.5-6.1,6.7c-5.1,7.8-10.2,15.7-15.3,23.5l0,0
	c-0.6-0.1-1.3-0.2-1.9-0.4c-0.1-1.3-0.2-2.5-0.3-3.8C1169.1,274.1,1165.6,257,1162.1,240z"/>
<path class="st28" d="M1162.1,240c3.5,17,6.9,34.1,10.4,51.1c-10.1-8.1-12.4-7.3-16.3,5.7c-0.1,0.3-0.5,0.5-0.7,0.8
	c-0.8-1.4-1.6-2.9-2.4-4.3c1.4-12.9,2.9-25.9,4.3-38.8C1159,249.6,1160.6,244.8,1162.1,240z"/>
<path class="st16" d="M1198.2,262.9c5.2-6.3,10.4-12.6,15.6-18.8c2.6-1.7,5.2-3.4,7.8-5.2c3.3,0.4,6.6,0.7,10,1.1
	c-0.3,1.9-0.6,3.9-0.9,5.8c-1.5,2.1-2.9,4.3-4.4,6.4c-0.1,0.6-0.2,1.2-0.3,1.9c-4.9,5.2-9.7,10.4-14.6,15.6
	C1210.4,261,1203.4,263.6,1198.2,262.9z"/>
<path class="st25" d="M1231.6,240c-3.3-0.4-6.6-0.7-10-1.1c6.4-5.9,12.7-11.7,19.1-17.6c1.4,1.4,2.8,2.8,4.2,4.2
	C1240.5,230.4,1236,235.2,1231.6,240z"/>
<path class="st27" d="M1226.3,252.3c1.5-2.1,2.9-4.3,4.4-6.4C1235.5,252.2,1230.7,252.1,1226.3,252.3z"/>
<path class="st18" d="M637,1186c-0.1,3-0.2,6-0.3,8.9c-4.6-9-14.7-8.3-22.1-12.4c-5-2.8-9.2-7-14-10.2c-2.4-1.6-5.4-2.8-8.3-3.3
	c-6.6-1-13.3-1.5-20-2.2c0-8.1,0-16.3,0-25.2c3.9,2.3,6.8,5.7,9.3,5.4c12.3-1.4,21.7,5,32.1,9.6c6.9,3,15.3,2.5,23,3.6
	C636.9,1168.9,636.9,1177.4,637,1186z"/>
<path class="st27" d="M636.4,373.1c-0.6-20.9-1.1-41.8-1.7-62.7c0.4-11.6,0.8-23.2,1.2-34.8c21.4-0.6,42.7-1,64.1-2
	c3.9-0.2,7.6-2.8,11.4-4.2c0.2,17.2,0.5,34.5,0.7,51.7c-0.2,4.2-0.5,8.5-0.7,12.7c-11.7,2.3-1.7,13.3-7.9,16.9
	c-4.1,0.1-7.7,1.6-11.3,2.8c-1.5,0.5-3.2,0.6-4.7,0.6c-7.1-0.1-14.2-0.3-21.2-0.7c-7.1-0.4-13.1,0.3-12.7,9.3
	c-9.7-2.1-13.4,2.4-14.5,10.2C638.2,373,637.3,373,636.4,373.1z"/>
<path class="st25" d="M639.1,372.9c1.2-7.8,4.9-12.3,14.5-10.2c-0.4-9,5.6-9.7,12.7-9.3c7.1,0.4,14.2,0.5,21.2,0.7
	c1.6,0,3.3-0.1,4.7-0.6c3.6-1.2,7.1-2.6,11.3-2.8c6.1-3.6-3.8-14.6,7.9-16.9c0,20.2,0,40.3,0.1,60.5c-0.4,1.4-0.8,2.9-1.3,4.3
	c0,1.3,0.1,2.7,0.1,4c-2.5,0.5-5.7,2.2-7.4,1.3c-15-8.6-35.6-7.5-49.5,2.8c-2.9,2.2-6.5,3.5-12.4,6.5
	C640.2,398.1,639.6,385.5,639.1,372.9z"/>
<path class="st27" d="M901.6,551.4c0-0.7,0-1.4-0.1-2.1c0.3,0.5,0.6,1,0.8,1.5C902.4,550.9,901.9,551.2,901.6,551.4z"/>
<path class="st28" d="M1213.5,372.8c-17.9,4.3-35.8,8.7-53.7,13c-17.2-4.4-34.4-8.7-51.7-13.1c-0.1-0.7-0.1-1.3-0.2-2
	c-2-5.9-4-11.7-6-17.6c7.2,0.1,14.4-0.6,21.4,0.4c17.7,2.6,35.2,6.3,52.9,9.1c11.3,1.8,22.8,2.4,34.1,4c2.6,0.4,5,2.5,7.5,3.8
	C1216.4,371.2,1214.9,372,1213.5,372.8z"/>
<path class="st21" d="M1155.5,297.5c0.3-0.2,0.7-0.5,0.7-0.8c4-13,6.2-13.8,16.3-5.7c0.1,1.3,0.2,2.5,0.3,3.8c0,1.7,0,3.4,0,5
	c0.5,0,0.9,0.1,1.4,0.1c0.2-1.6,0.4-3.1,0.5-4.7c0,0,0,0,0,0c4.8-2.6,9.4-5.4,14.3-7.6c2.5-1.1,6.6-2.6,8.1-1.5
	c2,1.6,2.7,5.4,3.2,8.4c0.5,3.7,0.2,7.5,0.2,11.3c-3.5,1.5-7.1,3.1-10.6,4.6c-9.8,6.1-19.6,12.3-29.4,18.4c-1.5-6.3-3.2-13.6-5-20.8
	C1155.5,304.6,1155.5,301.1,1155.5,297.5z"/>
<path class="st28" d="M1284.5,379.3c-1.8,5-3.6,9.9-5.4,14.9c-1,0.1-2.1,0.2-3.1,0.3c-0.7,1.3-1.5,2.7-2.2,4c0,0-0.2,0.2-0.2,0.2
	c-13.9-1.9-27.9-3.7-41.8-5.7c-2.4-0.4-6.5-1.3-6.7-2.5c-0.4-2.4,0.6-6,2.3-7.6c5.8-5.2,12.2-9.6,18.3-14.3
	c2.4,10.2,9.7,9.6,17.3,7.3c4.4-1.3,8.5-5.8,12,1.8C1275.8,379.3,1281.2,378.8,1284.5,379.3z"/>
<path class="st25" d="M1155.5,297.5c0,3.5,0,7.1,0.1,10.6c-4.2,0.9-8.5,2.9-12.6,2.6c-15.1-1.1-30.2-3-45.3-4.5
	c-0.7-0.1-1.6,1.3-2.4,2c-0.7-5.7-1.4-11.3-2.1-17c0.6-1.2,1.3-3.4,1.9-3.3c9.7,0.9,19.4,1.7,29,3.3c7,1.1,13.9,3.1,20.8,4.8
	c-0.1,1.2-0.1,2.3-0.2,3.5c2.8-2.1,5.6-4.1,8.4-6.2C1153.9,294.7,1154.7,296.1,1155.5,297.5z"/>
<path class="st21" d="M1102,353.2c2,5.9,4,11.7,6,17.6c-4.5,2.1-9,4.2-13.5,6.4c-0.6,0-1.3,0-1.9-0.1c-2.1-15.8-4.2-31.6-6.3-47.4
	c0.1-1.4,0.2-2.8,0.2-4.2c2.9-1.4,5.7-2.9,8.6-4.3C1097.4,331.8,1099.7,342.5,1102,353.2z"/>
<path class="st28" d="M1095.2,321.1c-2.9,1.4-5.7,2.9-8.6,4.3c1.4-9.3,2.8-18.7,4.2-28c0.8-2.1,1.6-4.2,2.3-6.3
	c0.7,5.7,1.4,11.3,2.1,17C1095.2,312.5,1095.2,316.8,1095.2,321.1z"/>
<path class="st27" d="M498.8,248.4c5,1.4,10,2.7,15.8,4.3c1.6-13.6,12.4-14.8,21.6-14.8c5.8,0,11.7,5.3,17.6,8.3
	c-0.2,1.1-0.4,2.2-0.6,3.3c1.8-3.1,3.7-6.2,6.6-11.1c2.4,4.4,4.1,7.5,5.8,10.7c7.4-3.1-5-16.3,8.3-16.3c0.2,2.2,0.3,4.5,0.5,6.7
	c-0.1,8.6-0.1,17.2-0.2,25.9c-0.1,20.7-0.3,41.4-0.4,62.2c-0.5,4.4-1.1,8.8-1.6,13.2c0,1.4,0,2.8,0.1,4.1c-8,0.6-16.1,1.6-24.1,1.6
	c-8.1,0-16.1-0.9-24.2-1.5c-8.1-0.6-16.3-1.5-24.4-2.2c-0.1-3.5-0.2-7.1-0.4-10.6C499,304.1,498.9,276.3,498.8,248.4z"/>
<path class="st26" d="M632.5,319.1c-0.1,15.8-0.1,31.5-0.2,47.3c-10.1,0.3-20.3,0.1-30.3,1c-4.3,0.4-8.4,3-12.6,4.6
	c-4.2,1.6-8.3,3.4-12.5,5.1c-0.1-13-0.1-26-0.2-39.1c-0.2-13,10.6-9.8,17.6-11.5c4.4-1.1,9.4-1.6,13.7-0.6c7.6,1.8,14.4,4,18.6-5.5
	C627,319.3,630.4,319.5,632.5,319.1z"/>
<path class="st10" d="M576.7,338c0.1,13,0.1,26,0.2,39.1c0,16.5-0.1,33-0.1,49.5c-0.1,28.4-0.2,56.9-0.4,85.3
	c0,3.7-1.2,7.4-1.8,11.1c-0.2-12.2-0.4-24.4-0.5-36.5c0-35.7,0.1-71.5,0.1-107.2c0-3.6,0.1-7.1,0.1-10.7c0-2.9,0-5.8,0-8.6
	c0-2.9,0-5.7,0-8.6c0-3.6,0.1-7.3,0.1-10.9c0.2-0.6,0.3-1.3,0.3-1.9C575.3,338.4,576,338.2,576.7,338z"/>
<path class="st25" d="M574.5,338.5c0,0.6-0.1,1.3-0.3,1.9c-0.7,0.1-1.5,0.1-2.2,0.2c0.5-4.4,1.1-8.8,1.6-13.2
	C574,331.1,574.3,334.8,574.5,338.5z"/>
<path class="st25" d="M574.1,265.2c0.1-8.6,0.1-17.2,0.2-25.9C574.2,248,574.2,256.6,574.1,265.2z"/>
<path class="st25" d="M634.8,230.8c0.3,0.5,0.6,1,0.8,1.6c0,0.1-0.4,0.5-0.7,0.7C634.9,232.3,634.9,231.6,634.8,230.8z"/>
<path class="st5" d="M707.8,1111.1c-5.2,0.6-10.7,2.6-15.5,1.6c-16.8-3.8-33.3-8.7-49.9-13.2c-1.3-0.4-2.9-1-3.7-2
	c-19-21.5-45.3-23.2-71.1-26.3c-2.7-0.3-5.3-1.7-8-2.1c-7.8-1.3-16-1.4-23.4-3.7c-8.3-2.5-16-7-24-10.6c7.8-6.5,15.6-7.1,25.7-3.8
	c13,4.3,27,5.4,40.5,8.2c5.7,1.2,11.1,3.6,16.7,5c2.3,0.6,4.9,0.9,7.1,0.3c10.3-2.8,19.4,0,26.6,7c16.7,16.1,38.9,17.4,59.5,23.1
	c5.8,1.6,12,1.5,19.6,2.3C707.8,1101.4,707.8,1106.2,707.8,1111.1z"/>
<path class="st26" d="M281.9,437.2c6.1,3,6.2,6,0,8.9C281.9,443.1,281.9,440.1,281.9,437.2z"/>
<path class="st28" d="M712.1,321.1c-0.2-17.2-0.5-34.5-0.7-51.7c0.2-4.3,0.5-8.5,0.7-12.8c13.6-8.3,28.1-11.9,43.4-6.4
	c3.9,1.4,6.7,5.7,10,8.7c0.2,0.7,0.4,1.3,0.6,2c-0.7,15.8-1.4,31.5-2.1,47.3c0.5,7.9,1,15.9,1.6,23.8c-15.1-1.5-30.3-2.7-45.4-4.8
	C717.2,326.9,714.8,323.2,712.1,321.1z"/>
<path class="st27" d="M711.7,239.2c-0.1,5.2-0.1,10.3-0.2,15.5C705.8,249.5,705.5,244.3,711.7,239.2z"/>
<path class="st14" d="M357.5,458.6c-0.1-10.7-0.2-21.4-0.2-32c0.6-3.3,1.9-6.7,1.8-10c-0.4-22.6-1.1-45.2-1.7-67.7
	c11.4-3.3,23.8-10.9,33.9-8.6c7.7,1.8,22.1-0.3,25.5,13.3c0.4,1.6,3,2.6,4.8,4.2c3.7-6.2,7.1-11.8,10.5-17.4
	c0.1,40.9,0.1,81.8,0.2,122.6c0,2.9,0,5.9,0,8.8c-3.6,4.2-7.1,8.4-10.9,12.8c-12.6-21.3-17.9-23.5-43.6-21.5
	C370.9,463.6,362.9,466.6,357.5,458.6z"/>
<path class="st26" d="M499.1,332c0.1,3.5,0.2,7.1,0.4,10.6c-0.1,0.8-0.2,1.5-0.4,2.3c0,4.3,0,8.6,0,12.9c-0.1,8.7-0.3,17.3-0.4,26
	c-5.7-4.6-11.6-4.9-18.5-2.4c-4.3,1.6-10,2-14.2,0.5c-10.7-3.8-18.5-1.3-24.9,7.6c-0.9,1.2-2.8,1.7-4.2,2.5
	c1.2-16.1-4.2-32.8,3.8-45.8c7.6-1.2,13.3-2.3,19.1-2.9c5.1-0.6,10.4-0.2,15.4-1.1c3.8-0.6,7.5-2.3,11.1-3.9
	C490.6,336.4,494.8,334.1,499.1,332z"/>
<path class="st27" d="M764,308.2c0.7-15.8,1.4-31.5,2.1-47.3c6.3,1.8,12,13.8,18.5,0.6c8.3,6.7,15.8,9.2,26,5.6
	c6.7-2.3,14.9-0.4,22-0.4c2.4-3.5,5.4-7.9,8.5-12.3c0.6,13.7,1.3,27.4,1.9,41c-0.5,2.2-1.1,4.3-1.6,6.5c-2.2,5.1-4.1,10.3-6.8,15.1
	c-1.2,2.2-3.9,4.9-6.1,5c-6.4,0.3-13-0.1-19.4-1c-8.5-1.3-16.8-3.3-26-5.2c-1.3,1-5.5,5.5-7,4.7c-3.5-1.7-5.6-6.1-8.4-9.3
	C766.8,310.1,765.3,309.2,764,308.2z"/>
<path class="st28" d="M841.4,301.9c0.5-2.2,1.1-4.3,1.6-6.5c13.1-3.5,26-6.4,39.6-0.6c5.3,2.2,12.3,0.6,18.5,0.7
	c0.1,5,0.2,9.9,0.3,14.9c-0.1,7.9-0.2,15.7-0.3,23.6c-0.6,2.7-1.8,5.3-1.8,8c-0.1,23.2,0.1,46.3,0.2,69.5c-1.5,11.4-3,22.9-4.6,34.3
	c-2.1,2.4-6.4,5.2-6.1,7.3c1.4,10,4,19.7,6.1,29.6c0.7,19.3,1.4,38.6,2.1,58c-3.4-1.6-7.2-2.7-10.1-4.9c-10.3-7.6-20.1-16-30.5-23.4
	c-5.1-3.7-8.3-2-9,4.9c-0.4,4.3-2.7,8.4-4.1,12.6c-0.7-5-1.4-10-2.1-15c0.1-5.7,0.1-11.5,0.2-17.2c1.3-3.4,3.6-6.8,3.8-10.3
	c1.1-16.7,1.8-33.4,2.2-50.1c0.1-5.7,2-12.6-6.5-14.7c0,0-0.1,0-0.1,0c0.1-15.2,0.1-30.3,0.2-45.5C841.3,352,841.3,327,841.4,301.9z
	"/>
<path class="st27" d="M901.5,310.4c-0.1-5-0.2-9.9-0.3-14.9c0.1-18.7,0.2-37.4,0.4-56.1c1.4,3.1,3.3,6.1,4.2,9.4
	c1.1,3.7,1.4,7.7,2.5,14.7c3.8-4.7,5.4-6.7,7.1-8.6c1.3-1.5,3.4-4.5,4.2-4.2c13.1,4.9,26.5-8.5,40,1.6c4.4,3.3,12.6,1.5,19.1,2.1
	c0.1,15.7,0.1,31.5,0.2,47.2c-0.3,2.1-0.5,4.2-0.8,6.3c-8.5,0.8-17.3,3.5-25.3,2c-16.2-2.9-30.7-2.2-39,7.3
	C909.2,314.8,905.4,312.6,901.5,310.4z"/>
<path class="st27" d="M841.6,497.6c-0.1,5.7-0.1,11.5-0.2,17.2c0,5.8,0,11.5,0,17.3c0,0.7-0.1,1.4-0.2,2.1c-3.1,1.7-6.1,3.4-7.3,4
	c-7.4-2.3-13.7-4.1-19.9-6.3c-1.8-0.6-4.3-1.8-4.7-3.2c-2.8-9.7-8.3-14.5-19.1-14.4c-3.2,0.1-6.6-5.3-8-6.5
	c-4.8,2.5-9.4,4.8-13.9,7.2c0.6-12.8,1.2-25.5,2-38.3c0.4-5.9,5.2-10.2,8.7-4.8c5.7,8.9,15.4,5.5,22,10.4c7.1,5.2,14.5,10.3,22,14.8
	c6.9,4.2,13,4.6,14.5-5.9c0.1-0.9,2.1-1.6,3.2-2.4C841.1,491.8,841.3,494.7,841.6,497.6z"/>
<path class="st16" d="M841.6,497.6c-0.2-2.9-0.5-5.9-0.7-8.8c0.1-22.1,0.2-44.2,0.3-66.3c8.5,2.1,6.6,9.1,6.5,14.7
	c-0.4,16.7-1.1,33.4-2.2,50.1C845.2,490.8,842.9,494.2,841.6,497.6z"/>
<path class="st25" d="M841.4,301.9c-0.1,25-0.2,50.1-0.3,75.1c-2,1.8-4.2,3.4-5.9,5.5c-7.8,9.7-25.8,15.5-37,11.2
	c-3.9-1.5-7.4-4.1-10.4-7.2c-4.9,3-10.9,13.3-21.4,3.3c-0.3-19.3-0.5-38.5-0.8-57.8c-0.5-7.9-1-15.9-1.6-23.8c1.3,1,2.8,1.9,3.8,3.1
	c2.8,3.2,4.9,7.5,8.4,9.3c1.5,0.8,5.6-3.8,7-4.7c9.2,1.9,17.5,3.9,26,5.2c6.4,0.9,13,1.3,19.4,1c2.1-0.1,4.9-2.8,6.1-5
	C837.3,312.2,839.2,307,841.4,301.9z"/>
<path class="st14" d="M710.2,398.6c0.4-1.4,0.8-2.9,1.3-4.3C711,395.8,710.6,397.2,710.2,398.6z"/>
<path class="st28" d="M1200.5,305.9c0-3.8,0.3-7.6-0.2-11.3c-0.4-3-1.1-6.8-3.2-8.4c-1.4-1.1-5.5,0.3-8.1,1.5
	c-4.9,2.2-9.5,5.1-14.3,7.6c5.1-7.8,10.2-15.7,15.3-23.5c2-2.2,4.1-4.5,6.1-6.7c0.7-0.7,1.4-1.4,2.1-2.1c5.2,0.7,12.2-1.9,13.3,6.8
	c-0.2,1.4-0.5,2.7-0.7,4.1c-2,2.2-4,4.3-6,6.5c0.6,0.7,1.1,1.3,1.7,2c3-1.2,6.1-2.4,9.1-3.6c5-0.3,10-0.6,15-0.9
	c1.5-0.6,3-1.2,4.4-1.8c5.6-0.6,11.3-1.3,16.9-1.9c-7.4,15.4-22.6,20.4-36.4,27.2C1210.9,303.6,1205.6,304.4,1200.5,305.9z"/>
<path class="st20" d="M901.2,598.8c-6.1-5.7-5.8-11.6-0.3-17.5C901,587.1,901.1,593,901.2,598.8z"/>
<path class="st21" d="M1245.9,628.8c-5.5-15.6-13.9-29.3-27.7-39.1c-0.9-4.7-1.8-9.3-2.7-14c-0.6-9.6-1.2-19.3-1.7-28.9
	c14,1.7,25.8,5.8,26.4,23c0,1.3,1.3,2.5,2,3.8c8.1,13.8,18,26.8,20.9,43c1.2,7,1.2,14.2,1.8,21.2c-1.2,0.5-2.3,1-3.5,1.5
	C1256.2,635.8,1251,632.3,1245.9,628.8z"/>
<path class="st21" d="M1245.3,566.3c-0.1,0.3-0.2,0.5-0.3,0.8c-0.3-0.3-0.6-0.6-0.9-0.9c0.2-0.2,0.4-0.4,0.6-0.6
	C1245,565.8,1245.1,566.1,1245.3,566.3z"/>
<path class="st16" d="M1047.9,146.9c0.2,1.7,1.1,4.6,0.5,4.9c-14.4,8.2-21.7,21.1-24.7,35.7c-6.7-11.2-14.1-22.6-20.2-34.6
	c-1.1-2.1,3.5-7.1,5.7-11.1C1022.3,151.5,1035.1,148.1,1047.9,146.9L1047.9,146.9z"/>
<path class="st16" d="M1047.8,146.8c0.3-0.3,0.6-0.6,1-0.9C1048.5,146.3,1048.2,146.6,1047.8,146.8
	C1047.9,146.9,1047.8,146.8,1047.8,146.8z"/>
<path class="st25" d="M1215.6,278.7c-3,1.2-6.1,2.4-9.1,3.6c-0.6-0.7-1.1-1.3-1.7-2c2-2.2,4-4.3,6-6.5
	C1212.4,275.4,1214,277.1,1215.6,278.7z"/>
<path class="st25" d="M1235,276c-1.5,0.6-3,1.2-4.4,1.8C1232.1,277.3,1233.6,276.6,1235,276z"/>
<path class="st28" d="M978.8,301.6c-0.1-15.7-0.1-31.5-0.2-47.2c1.4,0.2,2.8,0.4,4.2,0.6c8.8,5.5,17.8,10.7,26.4,16.4
	c8.1,5.4,15.9,11.4,23.8,17.2c-5.4-1-10.8-1.9-17.5-3.1c1.4,9.2-0.8,15.5-11.4,14.5c-1.6-0.1-3.5,1.9-5.1,3.1
	c-5.1,4.1-10.1,8.2-15.8,12.9C981.2,309.4,980,305.5,978.8,301.6z"/>
<path class="st21" d="M978.8,301.6c1.2,3.9,2.4,7.8,4.4,14.4c5.7-4.7,10.7-8.9,15.8-12.9c1.6-1.3,3.5-3.3,5.1-3.1
	c10.6,1,12.8-5.3,11.4-14.5c6.6,1.2,12.1,2.2,17.5,3.1c0,0,0,0.1,0,0.1c1.6,1.4,3.2,2.7,4.8,4.1c1.2,0.2,2.5,0.3,3.7,0.5
	c0.7,0.6,1.4,1.3,2.1,1.9c0,0,0.5-0.3,0.5-0.3c-1,7.3-2.1,14.6-3.1,21.9c-0.7,8.7-1.3,17.3-2,26c-1.3,1.2-3.5,2.3-3.7,3.6
	c-1.2,11.7-10.9,18.2-17.1,26.4c-5.7,7.5-14.3,13.7-22.8,17.9c-7.5,3.7-13.7,7.8-18.5,14.5c0.5-27.4,1.1-54.7,1.6-82.1
	c-0.2-5.1-0.4-10.1-0.6-15.2C978.2,305.8,978.5,303.7,978.8,301.6z"/>
<path class="st25" d="M1041,316.8c1-7.3,2.1-14.6,3.1-21.9c2.6-2.1,5.2-4.3,7.8-6.4c1.4,0.2,3.3,0,4.1,0.8
	c9.8,10.3,22.1,9.8,34.7,8.2c-1.4,9.3-2.8,18.7-4.2,28c-0.1,1.4-0.2,2.8-0.2,4.2c-9.8-1.4-19.9-4.8-29.4-3.6
	C1047.8,327.2,1043.7,324.5,1041,316.8z"/>
<path class="st28" d="M1037.8,292.8c-1.6-1.4-3.2-2.7-4.8-4.1C1034.6,290.1,1036.2,291.4,1037.8,292.8z"/>
<path class="st28" d="M1043.6,295.2c-0.7-0.6-1.4-1.3-2.1-1.9C1042.2,293.9,1042.9,294.6,1043.6,295.2z"/>
<path class="st21" d="M1273.8,398.4c0.7-1.3,1.5-2.7,2.2-4C1275.2,395.8,1274.5,397.1,1273.8,398.4z"/>
<path class="st16" d="M978.5,323.1c-0.5,27.4-1.1,54.7-1.6,82.1c-0.2,6.4-0.4,12.8-0.6,19.2c-25.6-4.3-51.2-8.6-76.8-12.9
	c-0.1-23.2-0.2-46.3-0.1-69.5c0-2.7,1.2-5.3,1.8-8c4,5.3,8,10.6,10.7,14.2c20.3-7.2,37.3-17,57.1-6.3
	C972.3,335.6,975.4,329.4,978.5,323.1z"/>
<path class="st16" d="M1041,316.8c2.7,7.7,6.8,10.4,16,9.2c9.5-1.2,19.5,2.2,29.4,3.6c2.1,15.8,4.2,31.6,6.3,47.4
	c-4.1,0.2-8.2,0.4-12.2,0.5c-6.4,0.1-14.2-2.4-18.7,0.5c-6.7,4.2-10.9,1.5-16.1-0.9c-2.2-11.4-4.4-22.9-6.6-34.3
	C1039.7,334.2,1040.3,325.5,1041,316.8z"/>
<path class="st28" d="M1045.6,377.1c5.2,2.3,9.4,5.1,16.1,0.9c4.6-2.9,12.4-0.4,18.7-0.5c4.1,0,8.2-0.3,12.2-0.5
	c0.6,0.1,1.2,0.1,1.9,0.1c1,5.8,1.3,11.9,3.3,17.3c2.4,6.3,0.4,9.9-4.8,12.9c-6.6-2.1-13.2-4.5-19.9-6.2c-6-1.4-11.8-1.1-14.5,6
	C1054.3,397.2,1050,387.2,1045.6,377.1z"/>
<path class="st21" d="M1108.1,372.8c17.2,4.4,34.4,8.7,51.7,13.1c-13.4,5.2-26.7,10.4-41.4,16.1
	C1114.7,391.4,1111.4,382.1,1108.1,372.8z"/>
<path class="st21" d="M1058.6,407.2c2.7-7.2,8.6-7.5,14.5-6c6.7,1.6,13.3,4.1,19.9,6.2c-5.1,8.6-10.3,17.3-17,28.7
	C1069.1,424.4,1063.9,415.8,1058.6,407.2z"/>
<path class="st0" d="M903.9,420.5c5.7,0.5,11.4,1.1,17.1,1.6c4.3,0.5,8.6,1,12.9,1.5c0,0,0,0.5,0,0.5c-1.8,2.8-3.7,5.6-5.9,9
	c-3.1-2.5-5.4-4.3-5.6-4.5c-8.1,1.8-14.2,3.1-20.4,4.5c-0.1-3.5-0.2-7.1-0.3-10.7C902.5,421.9,903.2,421.2,903.9,420.5z"/>
<path class="st16" d="M895.1,482.7c-2.2-9.8-4.8-19.6-6.1-29.6c-0.3-2.1,3.9-4.8,6.1-7.3c1.2,0,2.4,0,3.6,0c0,8.1,0,16.2,0.1,24.3
	C897.5,474.3,896.3,478.5,895.1,482.7z"/>
<path class="st13" d="M934,423.7c-4.3-0.5-8.6-1-12.9-1.5C925.4,422.7,929.7,423.2,934,423.7z"/>
<path class="st13" d="M903.9,420.5c-0.7,0.7-1.5,1.3-2.2,2C902.5,421.9,903.2,421.2,903.9,420.5z"/>
<path class="st14" d="M574.1,379.2c0,35.7-0.1,71.5-0.1,107.2c-2.6,3.5-6,6.6-7.5,10.5c-3,7.6-6.1,12.1-14.5,5.6
	c-11.6-9-24.2-7.4-37.4-3.5c-4.7,1.4-10.2,0.4-15.3,0.5c0-33.7-0.1-67.3-0.1-101c2.2-1.7,4.5-3.3,6.4-5.1c1.7-1.6,2.7-4.5,4.6-5.2
	c16.3-6.3,33.3-1.7,42.7,10.7c2.2-4.2,4.4-8.6,6.7-13c2.1,4.5,4.3,9.1,7.5,15.9C569.8,393.2,571.9,386.2,574.1,379.2z"/>
<path class="st26" d="M357.5,458.6c5.4,8,13.4,4.9,20.4,4.4c25.7-2.1,30.9,0.2,43.6,21.5c3.8-4.4,7.3-8.6,10.9-12.8
	c0,22.5,0,44.9,0,67.4c-0.9,0.6-1.9,1.1-2.8,1.7c-12.4-14.4-24.7-28.8-38.1-44.4c-10.8,14.1-20.8,27.2-30.8,40.3
	c-1.1-0.1-2.1-0.3-3.2-0.4C357.5,510.4,357.5,484.5,357.5,458.6z"/>
<path class="st25" d="M574.1,379.2c-2.1,7-4.3,14-6.9,22.6c-3.2-6.8-5.3-11.3-7.5-15.9c-2.3,4.4-4.6,8.8-6.7,13
	c-9.3-12.4-26.4-16.9-42.7-10.7c-1.9,0.7-2.9,3.6-4.6,5.2c-2,1.9-4.3,3.4-6.4,5.1c-0.1-0.7-0.3-1.4-0.3-2.1c0-0.7,0-1.5,0-2.2
	c0-3.5-0.1-7-0.1-10.6c0.1-8.7,0.2-17.3,0.4-26c0-4.3,0-8.6,0-12.9c0.1-0.8,0.2-1.5,0.4-2.3c8.1,0.7,16.2,1.6,24.4,2.2
	c8.1,0.6,16.1,1.5,24.2,1.5c8,0,16.1-1,24.1-1.6c0.7,2.2,1.4,4.4,2,6.6c0,2.9,0,5.7,0,8.6c0,2.9,0,5.8,0,8.6
	C574.1,372.1,574.1,375.7,574.1,379.2z"/>
<path class="st26" d="M498.9,394.3c0,0.7,0,1.5,0,2.2c-0.3-0.5-0.6-1-0.7-1.6C498.1,394.8,498.6,394.5,498.9,394.3z"/>
<path class="st16" d="M841.4,532.1c0-5.8,0-11.5,0-17.3c0.7,5,1.4,10,2.1,15C842.8,530.6,842.1,531.3,841.4,532.1z"/>
<path class="st16" d="M1196.1,265.1c-2,2.2-4.1,4.5-6.1,6.7C1192.1,269.5,1194.1,267.3,1196.1,265.1z"/>
<path class="st28" d="M1174.7,295.3c-0.2,1.6-0.4,3.1-0.5,4.7c-0.5,0-0.9-0.1-1.4-0.1c0-1.7,0-3.3,0-5
	C1173.5,295.1,1174.1,295.2,1174.7,295.3z"/>
<path class="st14" d="M574.2,351.3c-0.7-2.2-1.4-4.4-2-6.6c0-1.4,0-2.8-0.1-4.1c0.7,0,1.5-0.1,2.2-0.2
	C574.2,344.1,574.2,347.7,574.2,351.3z"/>
<path class="st14" d="M574.1,368.5c0-2.9,0-5.8,0-8.6C574.2,362.8,574.1,365.6,574.1,368.5z"/>
<path class="st20" d="M499.1,344.9c0,4.3,0,8.6,0,12.9C499.1,353.4,499.1,349.1,499.1,344.9z"/>
<path class="st25" d="M978.5,323.1c-3.1,6.3-6.3,12.5-9.4,18.8c-19.9-10.7-36.8-0.9-57.1,6.3c-2.7-3.6-6.7-8.9-10.7-14.2
	c0.1-7.9,0.2-15.7,0.3-23.6c3.8,2.2,7.7,4.4,12.2,6.9c8.3-9.5,22.7-10.3,39-7.3c8.1,1.5,16.9-1.2,25.3-2
	C978.2,313,978.4,318.1,978.5,323.1z"/>
</svg>
